<?xml version="1.0" encoding="UTF-8" standalone="no"?>
<!DOCTYPE svg PUBLIC "-//W3C//DTD SVG 1.1//EN"
 "http://www.w3.org/Graphics/SVG/1.1/DTD/svg11.dtd">
<!-- Generated by graphviz version 12.1.1 (20240910.0053)
 -->
<!-- Title: G Pages: 1 -->
<svg width="2101pt" height="1538pt"
 viewBox="0.00 0.00 2101.45 1538.18" xmlns="http://www.w3.org/2000/svg" xmlns:xlink="http://www.w3.org/1999/xlink">
<g id="graph0" class="graph" transform="scale(1 1) rotate(0) translate(21.6 1516.58)">
<title>G</title>
<polygon fill="#111111" stroke="none" points="-21.6,21.6 -21.6,-1516.58 2079.85,-1516.58 2079.85,21.6 -21.6,21.6"/>
<!-- assets/placeholder.jpg -->
<g id="node1" class="node">
<title>assets/placeholder.jpg</title>
<path fill="none" stroke="#cfffac" d="M1243.46,-1466.86C1243.46,-1466.86 1109.79,-1466.86 1109.79,-1466.86 1105.83,-1466.86 1101.88,-1462.9 1101.88,-1458.94 1101.88,-1458.94 1101.88,-1451.02 1101.88,-1451.02 1101.88,-1447.06 1105.83,-1443.11 1109.79,-1443.11 1109.79,-1443.11 1243.46,-1443.11 1243.46,-1443.11 1247.42,-1443.11 1251.38,-1447.06 1251.38,-1451.02 1251.38,-1451.02 1251.38,-1458.94 1251.38,-1458.94 1251.38,-1462.9 1247.42,-1466.86 1243.46,-1466.86"/>
<text text-anchor="middle" x="1176.62" y="-1449.56" font-family="Arial" font-size="14.00" fill="#cfffac">assets/placeholder.jpg</text>
</g>
<!-- boot/auth.js -->
<g id="node2" class="node">
<title>boot/auth.js</title>
<path fill="none" stroke="#c6c5fe" d="M1860.33,-168.86C1860.33,-168.86 1790.42,-168.86 1790.42,-168.86 1786.46,-168.86 1782.5,-164.9 1782.5,-160.94 1782.5,-160.94 1782.5,-153.02 1782.5,-153.02 1782.5,-149.06 1786.46,-145.11 1790.42,-145.11 1790.42,-145.11 1860.33,-145.11 1860.33,-145.11 1864.29,-145.11 1868.25,-149.06 1868.25,-153.02 1868.25,-153.02 1868.25,-160.94 1868.25,-160.94 1868.25,-164.9 1864.29,-168.86 1860.33,-168.86"/>
<text text-anchor="middle" x="1825.38" y="-151.56" font-family="Arial" font-size="14.00" fill="#c6c5fe">boot/auth.js</text>
</g>
<!-- boot/firebase.js -->
<g id="node3" class="node">
<title>boot/firebase.js</title>
<path fill="none" stroke="#cfffac" d="M2050.33,-246.86C2050.33,-246.86 1958.67,-246.86 1958.67,-246.86 1954.71,-246.86 1950.75,-242.9 1950.75,-238.94 1950.75,-238.94 1950.75,-231.02 1950.75,-231.02 1950.75,-227.06 1954.71,-223.11 1958.67,-223.11 1958.67,-223.11 2050.33,-223.11 2050.33,-223.11 2054.29,-223.11 2058.25,-227.06 2058.25,-231.02 2058.25,-231.02 2058.25,-238.94 2058.25,-238.94 2058.25,-242.9 2054.29,-246.86 2050.33,-246.86"/>
<text text-anchor="middle" x="2004.5" y="-229.56" font-family="Arial" font-size="14.00" fill="#cfffac">boot/firebase.js</text>
</g>
<!-- boot/auth.js&#45;&gt;boot/firebase.js -->
<g id="edge1" class="edge">
<title>boot/auth.js&#45;&gt;boot/firebase.js</title>
<path fill="none" stroke="#757575" d="M1868.48,-167.11C1883.37,-171.28 1900.07,-176.63 1914.75,-182.98 1936.26,-192.28 1959.04,-205.71 1976.14,-216.59"/>
<polygon fill="#757575" stroke="#757575" points="1973.93,-219.33 1984.22,-221.83 1977.73,-213.46 1973.93,-219.33"/>
</g>
<!-- boot/init.js -->
<g id="node4" class="node">
<title>boot/init.js</title>
<path fill="none" stroke="#c6c5fe" d="M703.71,-238.86C703.71,-238.86 642.79,-238.86 642.79,-238.86 638.83,-238.86 634.88,-234.9 634.88,-230.94 634.88,-230.94 634.88,-223.02 634.88,-223.02 634.88,-219.06 638.83,-215.11 642.79,-215.11 642.79,-215.11 703.71,-215.11 703.71,-215.11 707.67,-215.11 711.62,-219.06 711.62,-223.02 711.62,-223.02 711.62,-230.94 711.62,-230.94 711.62,-234.9 707.67,-238.86 703.71,-238.86"/>
<text text-anchor="middle" x="673.25" y="-221.56" font-family="Arial" font-size="14.00" fill="#c6c5fe">boot/init.js</text>
</g>
<!-- boot/init.js&#45;&gt;boot/firebase.js -->
<g id="edge2" class="edge">
<title>boot/init.js&#45;&gt;boot/firebase.js</title>
<path fill="none" stroke="#757575" d="M689.16,-214.62C747.36,-167.66 966.36,-2.98 1175.62,-2.98 1175.62,-2.98 1175.62,-2.98 1606.38,-2.98 1746.17,-2.98 1802.96,18.96 1914.75,-64.98 1964.24,-102.14 1988.65,-174.96 1998.31,-212.07"/>
<polygon fill="#757575" stroke="#757575" points="1994.79,-212.43 2000.58,-221.3 2001.59,-210.76 1994.79,-212.43"/>
</g>
<!-- listeners/realtimeListeners.js -->
<g id="node5" class="node">
<title>listeners/realtimeListeners.js</title>
<path fill="none" stroke="#c6c5fe" d="M1015.96,-280.86C1015.96,-280.86 844.79,-280.86 844.79,-280.86 840.83,-280.86 836.88,-276.9 836.88,-272.94 836.88,-272.94 836.88,-265.02 836.88,-265.02 836.88,-261.06 840.83,-257.11 844.79,-257.11 844.79,-257.11 1015.96,-257.11 1015.96,-257.11 1019.92,-257.11 1023.88,-261.06 1023.88,-265.02 1023.88,-265.02 1023.88,-272.94 1023.88,-272.94 1023.88,-276.9 1019.92,-280.86 1015.96,-280.86"/>
<text text-anchor="middle" x="930.38" y="-263.56" font-family="Arial" font-size="14.00" fill="#c6c5fe">listeners/realtimeListeners.js</text>
</g>
<!-- boot/init.js&#45;&gt;listeners/realtimeListeners.js -->
<g id="edge3" class="edge">
<title>boot/init.js&#45;&gt;listeners/realtimeListeners.js</title>
<path fill="none" stroke="#757575" d="M711.89,-233.18C746.33,-238.85 798.56,-247.44 843.2,-254.79"/>
<polygon fill="#757575" stroke="#757575" points="842.44,-258.22 852.87,-256.39 843.58,-251.31 842.44,-258.22"/>
</g>
<!-- watchers/appWatcher.js -->
<g id="node6" class="node">
<title>watchers/appWatcher.js</title>
<path fill="none" stroke="#c6c5fe" d="M1002.08,-238.86C1002.08,-238.86 858.67,-238.86 858.67,-238.86 854.71,-238.86 850.75,-234.9 850.75,-230.94 850.75,-230.94 850.75,-223.02 850.75,-223.02 850.75,-219.06 854.71,-215.11 858.67,-215.11 858.67,-215.11 1002.08,-215.11 1002.08,-215.11 1006.04,-215.11 1010,-219.06 1010,-223.02 1010,-223.02 1010,-230.94 1010,-230.94 1010,-234.9 1006.04,-238.86 1002.08,-238.86"/>
<text text-anchor="middle" x="930.38" y="-221.56" font-family="Arial" font-size="14.00" fill="#c6c5fe">watchers/appWatcher.js</text>
</g>
<!-- boot/init.js&#45;&gt;watchers/appWatcher.js -->
<g id="edge4" class="edge">
<title>boot/init.js&#45;&gt;watchers/appWatcher.js</title>
<path fill="none" stroke="#757575" d="M711.89,-226.98C745.3,-226.98 795.45,-226.98 839.17,-226.98"/>
<polygon fill="#757575" stroke="#757575" points="838.92,-230.48 848.92,-226.98 838.92,-223.48 838.92,-230.48"/>
</g>
<!-- utils/theme.js -->
<g id="node31" class="node">
<title>utils/theme.js</title>
<path fill="none" stroke="#c6c5fe" d="M1216.46,-362.86C1216.46,-362.86 1136.79,-362.86 1136.79,-362.86 1132.83,-362.86 1128.88,-358.9 1128.88,-354.94 1128.88,-354.94 1128.88,-347.02 1128.88,-347.02 1128.88,-343.06 1132.83,-339.11 1136.79,-339.11 1136.79,-339.11 1216.46,-339.11 1216.46,-339.11 1220.42,-339.11 1224.38,-343.06 1224.38,-347.02 1224.38,-347.02 1224.38,-354.94 1224.38,-354.94 1224.38,-358.9 1220.42,-362.86 1216.46,-362.86"/>
<text text-anchor="middle" x="1176.62" y="-345.56" font-family="Arial" font-size="14.00" fill="#c6c5fe">utils/theme.js</text>
</g>
<!-- listeners/realtimeListeners.js&#45;&gt;utils/theme.js -->
<g id="edge39" class="edge">
<title>listeners/realtimeListeners.js&#45;&gt;utils/theme.js</title>
<path fill="none" stroke="#757575" d="M997.26,-281.33C1008.12,-283.86 1019.19,-286.76 1029.5,-289.98 1068.29,-302.11 1111.01,-320.58 1140.19,-334.01"/>
<polygon fill="#757575" stroke="#757575" points="1138.38,-337.03 1148.92,-338.08 1141.33,-330.68 1138.38,-337.03"/>
</g>
<!-- stores/bibliografiaStore.js -->
<g id="node14" class="node">
<title>stores/bibliografiaStore.js</title>
<path fill="none" stroke="#cfffac" d="M1901.21,-697.86C1901.21,-697.86 1749.54,-697.86 1749.54,-697.86 1745.58,-697.86 1741.62,-693.9 1741.62,-689.94 1741.62,-689.94 1741.62,-682.02 1741.62,-682.02 1741.62,-678.06 1745.58,-674.11 1749.54,-674.11 1749.54,-674.11 1901.21,-674.11 1901.21,-674.11 1905.17,-674.11 1909.12,-678.06 1909.12,-682.02 1909.12,-682.02 1909.12,-689.94 1909.12,-689.94 1909.12,-693.9 1905.17,-697.86 1901.21,-697.86"/>
<text text-anchor="middle" x="1825.38" y="-680.56" font-family="Arial" font-size="14.00" fill="#cfffac">stores/bibliografiaStore.js</text>
</g>
<!-- watchers/appWatcher.js&#45;&gt;stores/bibliografiaStore.js -->
<g id="edge106" class="edge">
<title>watchers/appWatcher.js&#45;&gt;stores/bibliografiaStore.js</title>
<path fill="none" stroke="#757575" d="M1010.33,-216.67C1028.43,-214.72 1047.6,-212.98 1065.5,-211.98 1206.59,-204.12 1591.56,-163.38 1700,-253.98 1764.88,-308.19 1809.02,-580.03 1821.06,-662.33"/>
<polygon fill="#757575" stroke="#757575" points="1817.59,-662.76 1822.47,-672.16 1824.51,-661.76 1817.59,-662.76"/>
</g>
<!-- watchers/appWatcher.js&#45;&gt;utils/theme.js -->
<g id="edge107" class="edge">
<title>watchers/appWatcher.js&#45;&gt;utils/theme.js</title>
<path fill="none" stroke="#757575" d="M1010.39,-239.32C1017.05,-241.72 1023.52,-244.57 1029.5,-247.98 1049.99,-259.66 1047.1,-272.22 1065.5,-286.98 1088.43,-305.37 1117.25,-321.92 1139.65,-333.58"/>
<polygon fill="#757575" stroke="#757575" points="1137.91,-336.63 1148.41,-338.06 1141.1,-330.39 1137.91,-336.63"/>
</g>
<!-- boot/pinia.js -->
<g id="node7" class="node">
<title>boot/pinia.js</title>
<path fill="none" stroke="#cfffac" d="M114.58,-858.86C114.58,-858.86 42.42,-858.86 42.42,-858.86 38.46,-858.86 34.5,-854.9 34.5,-850.94 34.5,-850.94 34.5,-843.02 34.5,-843.02 34.5,-839.06 38.46,-835.11 42.42,-835.11 42.42,-835.11 114.58,-835.11 114.58,-835.11 118.54,-835.11 122.5,-839.06 122.5,-843.02 122.5,-843.02 122.5,-850.94 122.5,-850.94 122.5,-854.9 118.54,-858.86 114.58,-858.86"/>
<text text-anchor="middle" x="78.5" y="-841.56" font-family="Arial" font-size="14.00" fill="#cfffac">boot/pinia.js</text>
</g>
<!-- components/BookDetailContent.vue -->
<g id="node8" class="node">
<title>components/BookDetailContent.vue</title>
<path fill="none" stroke="#c6c5fe" d="M781.33,-795.86C781.33,-795.86 565.17,-795.86 565.17,-795.86 561.21,-795.86 557.25,-791.9 557.25,-787.94 557.25,-787.94 557.25,-780.02 557.25,-780.02 557.25,-776.06 561.21,-772.11 565.17,-772.11 565.17,-772.11 781.33,-772.11 781.33,-772.11 785.29,-772.11 789.25,-776.06 789.25,-780.02 789.25,-780.02 789.25,-787.94 789.25,-787.94 789.25,-791.9 785.29,-795.86 781.33,-795.86"/>
<text text-anchor="middle" x="673.25" y="-778.56" font-family="Arial" font-size="14.00" fill="#c6c5fe">components/BookDetailContent.vue</text>
</g>
<!-- components/BookDetails.vue -->
<g id="node9" class="node">
<title>components/BookDetails.vue</title>
<path fill="none" stroke="#c6c5fe" d="M1018.21,-795.86C1018.21,-795.86 842.54,-795.86 842.54,-795.86 838.58,-795.86 834.62,-791.9 834.62,-787.94 834.62,-787.94 834.62,-780.02 834.62,-780.02 834.62,-776.06 838.58,-772.11 842.54,-772.11 842.54,-772.11 1018.21,-772.11 1018.21,-772.11 1022.17,-772.11 1026.12,-776.06 1026.12,-780.02 1026.12,-780.02 1026.12,-787.94 1026.12,-787.94 1026.12,-791.9 1022.17,-795.86 1018.21,-795.86"/>
<text text-anchor="middle" x="930.38" y="-778.56" font-family="Arial" font-size="14.00" fill="#c6c5fe">components/BookDetails.vue</text>
</g>
<!-- components/BookDetailContent.vue&#45;&gt;components/BookDetails.vue -->
<g id="edge5" class="edge">
<title>components/BookDetailContent.vue&#45;&gt;components/BookDetails.vue</title>
<path fill="none" stroke="#757575" d="M789.5,-783.98C800.67,-783.98 811.97,-783.98 823.05,-783.98"/>
<polygon fill="#757575" stroke="#757575" points="822.99,-787.48 832.99,-783.98 822.99,-780.48 822.99,-787.48"/>
</g>
<!-- components/BookEditions.vue -->
<g id="node10" class="node">
<title>components/BookEditions.vue</title>
<path fill="none" stroke="#c6c5fe" d="M1021.58,-595.86C1021.58,-595.86 839.17,-595.86 839.17,-595.86 835.21,-595.86 831.25,-591.9 831.25,-587.94 831.25,-587.94 831.25,-580.02 831.25,-580.02 831.25,-576.06 835.21,-572.11 839.17,-572.11 839.17,-572.11 1021.58,-572.11 1021.58,-572.11 1025.54,-572.11 1029.5,-576.06 1029.5,-580.02 1029.5,-580.02 1029.5,-587.94 1029.5,-587.94 1029.5,-591.9 1025.54,-595.86 1021.58,-595.86"/>
<text text-anchor="middle" x="930.38" y="-578.56" font-family="Arial" font-size="14.00" fill="#c6c5fe">components/BookEditions.vue</text>
</g>
<!-- components/BookDetailContent.vue&#45;&gt;components/BookEditions.vue -->
<g id="edge6" class="edge">
<title>components/BookDetailContent.vue&#45;&gt;components/BookEditions.vue</title>
<path fill="none" stroke="#757575" d="M689.83,-771.77C732.7,-738.16 852.74,-644.06 904.79,-603.26"/>
<polygon fill="#757575" stroke="#757575" points="906.78,-606.14 912.49,-597.22 902.46,-600.63 906.78,-606.14"/>
</g>
<!-- components/BookImages.vue -->
<g id="node11" class="node">
<title>components/BookImages.vue</title>
<path fill="none" stroke="#c6c5fe" d="M1020.08,-1152.86C1020.08,-1152.86 840.67,-1152.86 840.67,-1152.86 836.71,-1152.86 832.75,-1148.9 832.75,-1144.94 832.75,-1144.94 832.75,-1137.02 832.75,-1137.02 832.75,-1133.06 836.71,-1129.11 840.67,-1129.11 840.67,-1129.11 1020.08,-1129.11 1020.08,-1129.11 1024.04,-1129.11 1028,-1133.06 1028,-1137.02 1028,-1137.02 1028,-1144.94 1028,-1144.94 1028,-1148.9 1024.04,-1152.86 1020.08,-1152.86"/>
<text text-anchor="middle" x="930.38" y="-1135.56" font-family="Arial" font-size="14.00" fill="#c6c5fe">components/BookImages.vue</text>
</g>
<!-- components/BookDetailContent.vue&#45;&gt;components/BookImages.vue -->
<g id="edge7" class="edge">
<title>components/BookDetailContent.vue&#45;&gt;components/BookImages.vue</title>
<path fill="none" stroke="#757575" d="M686.95,-796.2C710.64,-819.49 762.16,-872.63 795.25,-924.98 816.3,-958.28 811.56,-971.86 831.25,-1005.98 855.9,-1048.71 891.17,-1094.31 912.02,-1120.07"/>
<polygon fill="#757575" stroke="#757575" points="909.26,-1122.22 918.3,-1127.75 914.68,-1117.79 909.26,-1122.22"/>
</g>
<!-- config/bookDetailsConfig.js -->
<g id="node12" class="node">
<title>config/bookDetailsConfig.js</title>
<path fill="none" stroke="#cfffac" d="M1258.08,-716.86C1258.08,-716.86 1095.17,-716.86 1095.17,-716.86 1091.21,-716.86 1087.25,-712.9 1087.25,-708.94 1087.25,-708.94 1087.25,-701.02 1087.25,-701.02 1087.25,-697.06 1091.21,-693.11 1095.17,-693.11 1095.17,-693.11 1258.08,-693.11 1258.08,-693.11 1262.04,-693.11 1266,-697.06 1266,-701.02 1266,-701.02 1266,-708.94 1266,-708.94 1266,-712.9 1262.04,-716.86 1258.08,-716.86"/>
<text text-anchor="middle" x="1176.62" y="-699.56" font-family="Arial" font-size="14.00" fill="#cfffac">config/bookDetailsConfig.js</text>
</g>
<!-- components/BookDetails.vue&#45;&gt;config/bookDetailsConfig.js -->
<g id="edge8" class="edge">
<title>components/BookDetails.vue&#45;&gt;config/bookDetailsConfig.js</title>
<path fill="none" stroke="#757575" d="M963.72,-771.69C982.89,-764.35 1007.63,-754.77 1029.5,-745.98 1045.58,-739.52 1049.01,-736.32 1065.5,-730.98 1077.98,-726.94 1091.45,-723.23 1104.54,-719.97"/>
<polygon fill="#757575" stroke="#757575" points="1105.05,-723.44 1113.94,-717.69 1103.4,-716.64 1105.05,-723.44"/>
</g>
<!-- stores/authStore.js -->
<g id="node13" class="node">
<title>stores/authStore.js</title>
<path fill="none" stroke="#cfffac" d="M1232.96,-636.86C1232.96,-636.86 1120.29,-636.86 1120.29,-636.86 1116.33,-636.86 1112.38,-632.9 1112.38,-628.94 1112.38,-628.94 1112.38,-621.02 1112.38,-621.02 1112.38,-617.06 1116.33,-613.11 1120.29,-613.11 1120.29,-613.11 1232.96,-613.11 1232.96,-613.11 1236.92,-613.11 1240.88,-617.06 1240.88,-621.02 1240.88,-621.02 1240.88,-628.94 1240.88,-628.94 1240.88,-632.9 1236.92,-636.86 1232.96,-636.86"/>
<text text-anchor="middle" x="1176.62" y="-619.56" font-family="Arial" font-size="14.00" fill="#cfffac">stores/authStore.js</text>
</g>
<!-- components/BookDetails.vue&#45;&gt;stores/authStore.js -->
<g id="edge9" class="edge">
<title>components/BookDetails.vue&#45;&gt;stores/authStore.js</title>
<path fill="none" stroke="#757575" d="M982.07,-771.63C998.5,-765.82 1015.96,-757.55 1029.5,-745.98 1053.72,-725.28 1042.59,-706.12 1065.5,-683.98 1084.27,-665.85 1109.72,-651.73 1131.42,-641.85"/>
<polygon fill="#757575" stroke="#757575" points="1132.58,-645.16 1140.35,-637.95 1129.78,-638.75 1132.58,-645.16"/>
</g>
<!-- components/BookDetails.vue&#45;&gt;stores/bibliografiaStore.js -->
<g id="edge10" class="edge">
<title>components/BookDetails.vue&#45;&gt;stores/bibliografiaStore.js</title>
<path fill="none" stroke="#757575" d="M1026.5,-784.39C1098.41,-783.9 1199.48,-781.46 1287.75,-772.98 1331.94,-768.73 1601.05,-723.73 1740.59,-700.18"/>
<polygon fill="#757575" stroke="#757575" points="1740.87,-703.68 1750.14,-698.57 1739.7,-696.78 1740.87,-703.68"/>
</g>
<!-- stores/collaneStore.js -->
<g id="node15" class="node">
<title>stores/collaneStore.js</title>
<path fill="none" stroke="#cfffac" d="M1241.21,-994.86C1241.21,-994.86 1112.04,-994.86 1112.04,-994.86 1108.08,-994.86 1104.12,-990.9 1104.12,-986.94 1104.12,-986.94 1104.12,-979.02 1104.12,-979.02 1104.12,-975.06 1108.08,-971.11 1112.04,-971.11 1112.04,-971.11 1241.21,-971.11 1241.21,-971.11 1245.17,-971.11 1249.12,-975.06 1249.12,-979.02 1249.12,-979.02 1249.12,-986.94 1249.12,-986.94 1249.12,-990.9 1245.17,-994.86 1241.21,-994.86"/>
<text text-anchor="middle" x="1176.62" y="-977.56" font-family="Arial" font-size="14.00" fill="#cfffac">stores/collaneStore.js</text>
</g>
<!-- components/BookDetails.vue&#45;&gt;stores/collaneStore.js -->
<g id="edge11" class="edge">
<title>components/BookDetails.vue&#45;&gt;stores/collaneStore.js</title>
<path fill="none" stroke="#757575" d="M947.11,-796.32C968.14,-813.46 1005.53,-846.3 1029.5,-880.98 1051.9,-913.39 1034.63,-937.5 1065.5,-961.98 1073.56,-968.38 1082.99,-973.02 1092.88,-976.38"/>
<polygon fill="#757575" stroke="#757575" points="1091.72,-979.68 1102.3,-979.1 1093.67,-972.96 1091.72,-979.68"/>
</g>
<!-- stores/editoriStore.js -->
<g id="node16" class="node">
<title>stores/editoriStore.js</title>
<path fill="none" stroke="#cfffac" d="M1238.21,-952.86C1238.21,-952.86 1115.04,-952.86 1115.04,-952.86 1111.08,-952.86 1107.12,-948.9 1107.12,-944.94 1107.12,-944.94 1107.12,-937.02 1107.12,-937.02 1107.12,-933.06 1111.08,-929.11 1115.04,-929.11 1115.04,-929.11 1238.21,-929.11 1238.21,-929.11 1242.17,-929.11 1246.12,-933.06 1246.12,-937.02 1246.12,-937.02 1246.12,-944.94 1246.12,-944.94 1246.12,-948.9 1242.17,-952.86 1238.21,-952.86"/>
<text text-anchor="middle" x="1176.62" y="-935.56" font-family="Arial" font-size="14.00" fill="#cfffac">stores/editoriStore.js</text>
</g>
<!-- components/BookDetails.vue&#45;&gt;stores/editoriStore.js -->
<g id="edge12" class="edge">
<title>components/BookDetails.vue&#45;&gt;stores/editoriStore.js</title>
<path fill="none" stroke="#757575" d="M957.9,-796.32C979.4,-807.39 1009.33,-825.36 1029.5,-847.98 1053.31,-874.68 1036.97,-898.39 1065.5,-919.98 1074.4,-926.72 1084.85,-931.49 1095.7,-934.84"/>
<polygon fill="#757575" stroke="#757575" points="1094.61,-938.17 1105.17,-937.35 1096.4,-931.41 1094.61,-938.17"/>
</g>
<!-- stores/lingueStore.js -->
<g id="node17" class="node">
<title>stores/lingueStore.js</title>
<path fill="none" stroke="#cfffac" d="M1237.83,-1036.86C1237.83,-1036.86 1115.42,-1036.86 1115.42,-1036.86 1111.46,-1036.86 1107.5,-1032.9 1107.5,-1028.94 1107.5,-1028.94 1107.5,-1021.02 1107.5,-1021.02 1107.5,-1017.06 1111.46,-1013.11 1115.42,-1013.11 1115.42,-1013.11 1237.83,-1013.11 1237.83,-1013.11 1241.79,-1013.11 1245.75,-1017.06 1245.75,-1021.02 1245.75,-1021.02 1245.75,-1028.94 1245.75,-1028.94 1245.75,-1032.9 1241.79,-1036.86 1237.83,-1036.86"/>
<text text-anchor="middle" x="1176.62" y="-1019.56" font-family="Arial" font-size="14.00" fill="#cfffac">stores/lingueStore.js</text>
</g>
<!-- components/BookDetails.vue&#45;&gt;stores/lingueStore.js -->
<g id="edge13" class="edge">
<title>components/BookDetails.vue&#45;&gt;stores/lingueStore.js</title>
<path fill="none" stroke="#757575" d="M948.18,-796.16C970.05,-812.87 1008.02,-844.98 1029.5,-880.98 1058.68,-929.9 1023.33,-965.69 1065.5,-1003.98 1074.18,-1011.86 1084.88,-1017.2 1096.15,-1020.75"/>
<polygon fill="#757575" stroke="#757575" points="1095.08,-1024.09 1105.64,-1023.25 1096.86,-1017.32 1095.08,-1024.09"/>
</g>
<!-- stores/userStore.js -->
<g id="node18" class="node">
<title>stores/userStore.js</title>
<path fill="none" stroke="#cfffac" d="M1455.58,-497.86C1455.58,-497.86 1342.92,-497.86 1342.92,-497.86 1338.96,-497.86 1335,-493.9 1335,-489.94 1335,-489.94 1335,-482.02 1335,-482.02 1335,-478.06 1338.96,-474.11 1342.92,-474.11 1342.92,-474.11 1455.58,-474.11 1455.58,-474.11 1459.54,-474.11 1463.5,-478.06 1463.5,-482.02 1463.5,-482.02 1463.5,-489.94 1463.5,-489.94 1463.5,-493.9 1459.54,-497.86 1455.58,-497.86"/>
<text text-anchor="middle" x="1399.25" y="-480.56" font-family="Arial" font-size="14.00" fill="#cfffac">stores/userStore.js</text>
</g>
<!-- components/BookDetails.vue&#45;&gt;stores/userStore.js -->
<g id="edge14" class="edge">
<title>components/BookDetails.vue&#45;&gt;stores/userStore.js</title>
<path fill="none" stroke="#757575" d="M1026.36,-791.68C1104.16,-792.97 1213.16,-782.72 1287.75,-725.98 1359.79,-671.18 1386.42,-558.27 1394.85,-509.39"/>
<polygon fill="#757575" stroke="#757575" points="1398.28,-510.08 1396.41,-499.65 1391.37,-508.97 1398.28,-510.08"/>
</g>
<!-- utils/deleteBookUtils.js -->
<g id="node19" class="node">
<title>utils/deleteBookUtils.js</title>
<path fill="none" stroke="#c6c5fe" d="M1466.83,-870.86C1466.83,-870.86 1331.67,-870.86 1331.67,-870.86 1327.71,-870.86 1323.75,-866.9 1323.75,-862.94 1323.75,-862.94 1323.75,-855.02 1323.75,-855.02 1323.75,-851.06 1327.71,-847.11 1331.67,-847.11 1331.67,-847.11 1466.83,-847.11 1466.83,-847.11 1470.79,-847.11 1474.75,-851.06 1474.75,-855.02 1474.75,-855.02 1474.75,-862.94 1474.75,-862.94 1474.75,-866.9 1470.79,-870.86 1466.83,-870.86"/>
<text text-anchor="middle" x="1399.25" y="-853.56" font-family="Arial" font-size="14.00" fill="#c6c5fe">utils/deleteBookUtils.js</text>
</g>
<!-- components/BookDetails.vue&#45;&gt;utils/deleteBookUtils.js -->
<g id="edge15" class="edge">
<title>components/BookDetails.vue&#45;&gt;utils/deleteBookUtils.js</title>
<path fill="none" stroke="#757575" d="M991.43,-796.35C1004.29,-799.97 1017.58,-804.47 1029.5,-809.98 1047.18,-818.15 1047.13,-828.49 1065.5,-834.98 1145.69,-863.3 1243.35,-867.03 1312.07,-865.06"/>
<polygon fill="#757575" stroke="#757575" points="1311.88,-868.57 1321.75,-864.73 1311.64,-861.57 1311.88,-868.57"/>
</g>
<!-- components/BookEditions.vue&#45;&gt;stores/authStore.js -->
<g id="edge16" class="edge">
<title>components/BookEditions.vue&#45;&gt;stores/authStore.js</title>
<path fill="none" stroke="#757575" d="M1004.99,-596.34C1035.39,-601.44 1070.58,-607.35 1101.07,-612.47"/>
<polygon fill="#757575" stroke="#757575" points="1100.15,-615.86 1110.59,-614.06 1101.3,-608.96 1100.15,-615.86"/>
</g>
<!-- components/BookEditions.vue&#45;&gt;stores/userStore.js -->
<g id="edge17" class="edge">
<title>components/BookEditions.vue&#45;&gt;stores/userStore.js</title>
<path fill="none" stroke="#757575" d="M955.92,-571.64C982.31,-558.91 1025.84,-539.48 1065.5,-528.98 1152.26,-506.01 1255.13,-495.11 1323.28,-490.08"/>
<polygon fill="#757575" stroke="#757575" points="1323.52,-493.57 1333.24,-489.37 1323.02,-486.59 1323.52,-493.57"/>
</g>
<!-- utils/edizioniUtils.js -->
<g id="node20" class="node">
<title>utils/edizioniUtils.js</title>
<path fill="none" stroke="#c6c5fe" d="M1233.33,-594.86C1233.33,-594.86 1119.92,-594.86 1119.92,-594.86 1115.96,-594.86 1112,-590.9 1112,-586.94 1112,-586.94 1112,-579.02 1112,-579.02 1112,-575.06 1115.96,-571.11 1119.92,-571.11 1119.92,-571.11 1233.33,-571.11 1233.33,-571.11 1237.29,-571.11 1241.25,-575.06 1241.25,-579.02 1241.25,-579.02 1241.25,-586.94 1241.25,-586.94 1241.25,-590.9 1237.29,-594.86 1233.33,-594.86"/>
<text text-anchor="middle" x="1176.62" y="-577.56" font-family="Arial" font-size="14.00" fill="#c6c5fe">utils/edizioniUtils.js</text>
</g>
<!-- components/BookEditions.vue&#45;&gt;utils/edizioniUtils.js -->
<g id="edge18" class="edge">
<title>components/BookEditions.vue&#45;&gt;utils/edizioniUtils.js</title>
<path fill="none" stroke="#757575" d="M1029.67,-583.58C1053.14,-583.48 1077.85,-583.38 1100.12,-583.29"/>
<polygon fill="#757575" stroke="#757575" points="1100.02,-586.79 1110.01,-583.25 1099.99,-579.79 1100.02,-586.79"/>
</g>
<!-- components/BookImages.vue&#45;&gt;assets/placeholder.jpg -->
<g id="edge19" class="edge">
<title>components/BookImages.vue&#45;&gt;assets/placeholder.jpg</title>
<path fill="none" stroke="#757575" d="M939.77,-1153.35C958.12,-1180.83 1002.37,-1249.5 1029.5,-1311.98 1051.17,-1361.88 1025.77,-1391.81 1065.5,-1428.98 1072.8,-1435.81 1081.54,-1440.95 1090.87,-1444.8"/>
<polygon fill="#757575" stroke="#757575" points="1089.58,-1448.06 1100.18,-1448.12 1091.93,-1441.46 1089.58,-1448.06"/>
</g>
<!-- components/BookImages.vue&#45;&gt;boot/firebase.js -->
<g id="edge20" class="edge">
<title>components/BookImages.vue&#45;&gt;boot/firebase.js</title>
<path fill="none" stroke="#757575" d="M939.39,-1153.21C956.98,-1180.36 999.8,-1248.01 1029.5,-1307.98 1048.25,-1345.85 1031.5,-1370.89 1065.5,-1395.98 1122.24,-1437.84 1634.3,-1430.58 1700,-1404.98 1814.46,-1360.39 1857.01,-1339.41 1914.75,-1230.98 2008.53,-1054.9 2005.45,-392.17 2003.85,-258.55"/>
<polygon fill="#757575" stroke="#757575" points="2007.35,-258.77 2003.72,-248.82 2000.35,-258.86 2007.35,-258.77"/>
</g>
<!-- components/BookImages.vue&#45;&gt;stores/authStore.js -->
<g id="edge21" class="edge">
<title>components/BookImages.vue&#45;&gt;stores/authStore.js</title>
<path fill="none" stroke="#757575" d="M943.61,-1128.92C965.19,-1106.81 1009.6,-1057.31 1029.5,-1005.98 1081.56,-871.72 984.77,-803.22 1065.5,-683.98 1078.76,-664.39 1100.72,-650.78 1121.54,-641.62"/>
<polygon fill="#757575" stroke="#757575" points="1122.64,-644.95 1130.56,-637.92 1119.98,-638.48 1122.64,-644.95"/>
</g>
<!-- components/BookImages.vue&#45;&gt;stores/bibliografiaStore.js -->
<g id="edge22" class="edge">
<title>components/BookImages.vue&#45;&gt;stores/bibliografiaStore.js</title>
<path fill="none" stroke="#757575" d="M1028.48,-1142.27C1102.09,-1140.15 1204.43,-1130.4 1287.75,-1096.98 1499.77,-1011.93 1559.66,-970.24 1700,-789.98 1723.6,-759.67 1706.88,-733.99 1734.4,-705.76"/>
<polygon fill="#757575" stroke="#757575" points="1736.67,-708.43 1741.77,-699.14 1732,-703.22 1736.67,-708.43"/>
</g>
<!-- components/BookImages.vue&#45;&gt;stores/collaneStore.js -->
<g id="edge23" class="edge">
<title>components/BookImages.vue&#45;&gt;stores/collaneStore.js</title>
<path fill="none" stroke="#757575" d="M939.4,-1128.7C957.97,-1101.36 1006.83,-1035.44 1065.5,-1003.98 1074.04,-999.4 1083.42,-995.81 1092.99,-993"/>
<polygon fill="#757575" stroke="#757575" points="1093.6,-996.45 1102.38,-990.52 1091.82,-989.68 1093.6,-996.45"/>
</g>
<!-- components/BookImages.vue&#45;&gt;stores/editoriStore.js -->
<g id="edge25" class="edge">
<title>components/BookImages.vue&#45;&gt;stores/editoriStore.js</title>
<path fill="none" stroke="#757575" d="M940.11,-1128.83C968.47,-1089.44 1056.67,-967.49 1065.5,-961.98 1074.69,-956.24 1085.09,-952.01 1095.74,-948.89"/>
<polygon fill="#757575" stroke="#757575" points="1096.6,-952.29 1105.42,-946.41 1094.87,-945.5 1096.6,-952.29"/>
</g>
<!-- components/BookImages.vue&#45;&gt;stores/lingueStore.js -->
<g id="edge26" class="edge">
<title>components/BookImages.vue&#45;&gt;stores/lingueStore.js</title>
<path fill="none" stroke="#757575" d="M957.05,-1128.79C1000.76,-1108.03 1089.7,-1065.79 1139.6,-1042.09"/>
<polygon fill="#757575" stroke="#757575" points="1141.03,-1045.29 1148.56,-1037.84 1138.02,-1038.96 1141.03,-1045.29"/>
</g>
<!-- components/BookImages.vue&#45;&gt;stores/userStore.js -->
<g id="edge28" class="edge">
<title>components/BookImages.vue&#45;&gt;stores/userStore.js</title>
<path fill="none" stroke="#757575" d="M1018.82,-1128.62C1112.27,-1113.59 1251.83,-1085.26 1287.75,-1045.98 1351.07,-976.75 1306.03,-930.11 1323.75,-837.98 1347.66,-713.66 1380.4,-565.56 1393.01,-509.26"/>
<polygon fill="#757575" stroke="#757575" points="1396.41,-510.11 1395.18,-499.58 1389.58,-508.57 1396.41,-510.11"/>
</g>
<!-- stores/coversStore.js -->
<g id="node21" class="node">
<title>stores/coversStore.js</title>
<path fill="none" stroke="#cfffac" d="M1462.33,-1210.86C1462.33,-1210.86 1336.17,-1210.86 1336.17,-1210.86 1332.21,-1210.86 1328.25,-1206.9 1328.25,-1202.94 1328.25,-1202.94 1328.25,-1195.02 1328.25,-1195.02 1328.25,-1191.06 1332.21,-1187.11 1336.17,-1187.11 1336.17,-1187.11 1462.33,-1187.11 1462.33,-1187.11 1466.29,-1187.11 1470.25,-1191.06 1470.25,-1195.02 1470.25,-1195.02 1470.25,-1202.94 1470.25,-1202.94 1470.25,-1206.9 1466.29,-1210.86 1462.33,-1210.86"/>
<text text-anchor="middle" x="1399.25" y="-1193.56" font-family="Arial" font-size="14.00" fill="#cfffac">stores/coversStore.js</text>
</g>
<!-- components/BookImages.vue&#45;&gt;stores/coversStore.js -->
<g id="edge24" class="edge">
<title>components/BookImages.vue&#45;&gt;stores/coversStore.js</title>
<path fill="none" stroke="#757575" d="M938.87,-1153.19C956.7,-1180.91 1004.73,-1248.09 1065.5,-1272.98 1156.91,-1310.42 1200.46,-1319.21 1287.75,-1272.98 1312.91,-1259.65 1300.65,-1236.63 1323.75,-1219.98 1325.55,-1218.68 1327.43,-1217.47 1329.36,-1216.33"/>
<polygon fill="#757575" stroke="#757575" points="1330.77,-1219.54 1338.11,-1211.9 1327.61,-1213.29 1330.77,-1219.54"/>
</g>
<!-- stores/undoStore.js -->
<g id="node22" class="node">
<title>stores/undoStore.js</title>
<path fill="none" stroke="#c6c5fe" d="M1457.46,-1252.86C1457.46,-1252.86 1341.04,-1252.86 1341.04,-1252.86 1337.08,-1252.86 1333.12,-1248.9 1333.12,-1244.94 1333.12,-1244.94 1333.12,-1237.02 1333.12,-1237.02 1333.12,-1233.06 1337.08,-1229.11 1341.04,-1229.11 1341.04,-1229.11 1457.46,-1229.11 1457.46,-1229.11 1461.42,-1229.11 1465.38,-1233.06 1465.38,-1237.02 1465.38,-1237.02 1465.38,-1244.94 1465.38,-1244.94 1465.38,-1248.9 1461.42,-1252.86 1457.46,-1252.86"/>
<text text-anchor="middle" x="1399.25" y="-1235.56" font-family="Arial" font-size="14.00" fill="#c6c5fe">stores/undoStore.js</text>
</g>
<!-- components/BookImages.vue&#45;&gt;stores/undoStore.js -->
<g id="edge27" class="edge">
<title>components/BookImages.vue&#45;&gt;stores/undoStore.js</title>
<path fill="none" stroke="#757575" d="M936.72,-1152.98C951.62,-1184.75 997.1,-1270.81 1065.5,-1302.98 1154.89,-1345.02 1196.49,-1340.78 1287.75,-1302.98 1308.66,-1294.32 1304.59,-1279.01 1323.75,-1266.98 1329.54,-1263.35 1335.9,-1260.14 1342.39,-1257.34"/>
<polygon fill="#757575" stroke="#757575" points="1343.23,-1260.77 1351.22,-1253.82 1340.64,-1254.27 1343.23,-1260.77"/>
</g>
<!-- utils/firebaseDatabaseUtils.js -->
<g id="node23" class="node">
<title>utils/firebaseDatabaseUtils.js</title>
<path fill="none" stroke="#c6c5fe" d="M1692.08,-1078.86C1692.08,-1078.86 1518.67,-1078.86 1518.67,-1078.86 1514.71,-1078.86 1510.75,-1074.9 1510.75,-1070.94 1510.75,-1070.94 1510.75,-1063.02 1510.75,-1063.02 1510.75,-1059.06 1514.71,-1055.11 1518.67,-1055.11 1518.67,-1055.11 1692.08,-1055.11 1692.08,-1055.11 1696.04,-1055.11 1700,-1059.06 1700,-1063.02 1700,-1063.02 1700,-1070.94 1700,-1070.94 1700,-1074.9 1696.04,-1078.86 1692.08,-1078.86"/>
<text text-anchor="middle" x="1605.38" y="-1061.56" font-family="Arial" font-size="14.00" fill="#c6c5fe">utils/firebaseDatabaseUtils.js</text>
</g>
<!-- components/BookImages.vue&#45;&gt;utils/firebaseDatabaseUtils.js -->
<g id="edge29" class="edge">
<title>components/BookImages.vue&#45;&gt;utils/firebaseDatabaseUtils.js</title>
<path fill="none" stroke="#757575" d="M1028.35,-1152.31C1040.83,-1153.41 1053.46,-1154.35 1065.5,-1154.98 1164.14,-1160.12 1192.13,-1179.76 1287.75,-1154.98 1305.47,-1150.39 1306.7,-1141.64 1323.75,-1134.98 1387.22,-1110.19 1462.41,-1092.55 1518.98,-1081.46"/>
<polygon fill="#757575" stroke="#757575" points="1519.39,-1084.95 1528.55,-1079.62 1518.07,-1078.07 1519.39,-1084.95"/>
</g>
<!-- utils/imageUtils.js -->
<g id="node24" class="node">
<title>utils/imageUtils.js</title>
<path fill="none" stroke="#c6c5fe" d="M1229.21,-1386.86C1229.21,-1386.86 1124.04,-1386.86 1124.04,-1386.86 1120.08,-1386.86 1116.12,-1382.9 1116.12,-1378.94 1116.12,-1378.94 1116.12,-1371.02 1116.12,-1371.02 1116.12,-1367.06 1120.08,-1363.11 1124.04,-1363.11 1124.04,-1363.11 1229.21,-1363.11 1229.21,-1363.11 1233.17,-1363.11 1237.12,-1367.06 1237.12,-1371.02 1237.12,-1371.02 1237.12,-1378.94 1237.12,-1378.94 1237.12,-1382.9 1233.17,-1386.86 1229.21,-1386.86"/>
<text text-anchor="middle" x="1176.62" y="-1369.56" font-family="Arial" font-size="14.00" fill="#c6c5fe">utils/imageUtils.js</text>
</g>
<!-- components/BookImages.vue&#45;&gt;utils/imageUtils.js -->
<g id="edge30" class="edge">
<title>components/BookImages.vue&#45;&gt;utils/imageUtils.js</title>
<path fill="none" stroke="#757575" d="M937.69,-1153.23C958.81,-1193.73 1027.77,-1322.33 1065.5,-1348.98 1077.08,-1357.16 1090.89,-1362.8 1104.75,-1366.67"/>
<polygon fill="#757575" stroke="#757575" points="1103.82,-1370.05 1114.37,-1369.05 1105.5,-1363.25 1103.82,-1370.05"/>
</g>
<!-- utils/deleteBookUtils.js&#45;&gt;stores/bibliografiaStore.js -->
<g id="edge90" class="edge">
<title>utils/deleteBookUtils.js&#45;&gt;stores/bibliografiaStore.js</title>
<path fill="none" stroke="#757575" d="M1431.41,-846.77C1485.98,-825.32 1602.34,-779.33 1700,-738.98 1728.91,-727.04 1761.43,-713.16 1785.96,-702.61"/>
<polygon fill="#757575" stroke="#757575" points="1787.1,-705.93 1794.9,-698.76 1784.33,-699.5 1787.1,-705.93"/>
</g>
<!-- utils/deleteBookUtils.js&#45;&gt;utils/firebaseDatabaseUtils.js -->
<g id="edge91" class="edge">
<title>utils/deleteBookUtils.js&#45;&gt;utils/firebaseDatabaseUtils.js</title>
<path fill="none" stroke="#757575" d="M1412.11,-871.06C1445.86,-905.46 1542.72,-1004.15 1584.64,-1046.87"/>
<polygon fill="#757575" stroke="#757575" points="1581.92,-1049.1 1591.43,-1053.79 1586.92,-1044.2 1581.92,-1049.1"/>
</g>
<!-- utils/edizioniUtils.js&#45;&gt;stores/bibliografiaStore.js -->
<g id="edge92" class="edge">
<title>utils/edizioniUtils.js&#45;&gt;stores/bibliografiaStore.js</title>
<path fill="none" stroke="#757575" d="M1241.64,-588.3C1340.63,-597.21 1536.48,-617.51 1700,-650.98 1725.12,-656.12 1752.6,-663.65 1775.33,-670.41"/>
<polygon fill="#757575" stroke="#757575" points="1774.04,-673.67 1784.62,-673.21 1776.06,-666.97 1774.04,-673.67"/>
</g>
<!-- utils/edizioniUtils.js&#45;&gt;stores/userStore.js -->
<g id="edge93" class="edge">
<title>utils/edizioniUtils.js&#45;&gt;stores/userStore.js</title>
<path fill="none" stroke="#757575" d="M1241.7,-571.72C1257.1,-567.96 1273.28,-563.12 1287.75,-556.98 1319.6,-543.46 1352.52,-521.02 1374.05,-504.98"/>
<polygon fill="#757575" stroke="#757575" points="1376.04,-507.87 1381.89,-499.04 1371.81,-502.29 1376.04,-507.87"/>
</g>
<!-- utils/edizioniUtils.js&#45;&gt;utils/firebaseDatabaseUtils.js -->
<g id="edge94" class="edge">
<title>utils/edizioniUtils.js&#45;&gt;utils/firebaseDatabaseUtils.js</title>
<path fill="none" stroke="#757575" d="M1241.49,-588.65C1257.22,-591.78 1273.6,-596.59 1287.75,-603.98 1390.81,-657.84 1407.67,-691.99 1474.75,-786.98 1535.98,-873.69 1580.09,-993.93 1596.89,-1043.84"/>
<polygon fill="#757575" stroke="#757575" points="1593.54,-1044.86 1600.01,-1053.25 1600.19,-1042.66 1593.54,-1044.86"/>
</g>
<!-- stores/undoStore.js&#45;&gt;utils/firebaseDatabaseUtils.js -->
<g id="edge89" class="edge">
<title>stores/undoStore.js&#45;&gt;utils/firebaseDatabaseUtils.js</title>
<path fill="none" stroke="#757575" d="M1457.52,-1228.67C1463.56,-1226.27 1469.44,-1223.4 1474.75,-1219.98 1528.39,-1185.5 1571.64,-1122.03 1591.9,-1088.71"/>
<polygon fill="#757575" stroke="#757575" points="1594.78,-1090.71 1596.88,-1080.33 1588.76,-1087.13 1594.78,-1090.71"/>
</g>
<!-- utils/firebaseDatabaseUtils.js&#45;&gt;boot/firebase.js -->
<g id="edge95" class="edge">
<title>utils/firebaseDatabaseUtils.js&#45;&gt;boot/firebase.js</title>
<path fill="none" stroke="#757575" d="M1674.11,-1054.62C1683.32,-1051.14 1692.26,-1046.69 1700,-1040.98 1842.07,-936.28 1849.51,-870.96 1914.75,-706.98 1979.75,-543.61 1997.88,-329.12 2002.26,-258.58"/>
<polygon fill="#757575" stroke="#757575" points="2005.75,-258.82 2002.84,-248.64 1998.76,-258.42 2005.75,-258.82"/>
</g>
<!-- utils/firebaseDatabaseUtils.js&#45;&gt;stores/bibliografiaStore.js -->
<g id="edge96" class="edge">
<title>utils/firebaseDatabaseUtils.js&#45;&gt;stores/bibliografiaStore.js</title>
<path fill="none" stroke="#757575" d="M1681.41,-1054.72C1688.35,-1051.19 1694.74,-1046.69 1700,-1040.98 1757.92,-978.07 1707.59,-932.63 1736,-851.98 1755.3,-797.2 1790.45,-738.4 1810.1,-707.61"/>
<polygon fill="#757575" stroke="#757575" points="1812.82,-709.86 1815.31,-699.56 1806.94,-706.06 1812.82,-709.86"/>
</g>
<!-- utils/firebaseStorageUtils.js -->
<g id="node45" class="node">
<title>utils/firebaseStorageUtils.js</title>
<path fill="none" stroke="#c6c5fe" d="M1906.83,-1078.86C1906.83,-1078.86 1743.92,-1078.86 1743.92,-1078.86 1739.96,-1078.86 1736,-1074.9 1736,-1070.94 1736,-1070.94 1736,-1063.02 1736,-1063.02 1736,-1059.06 1739.96,-1055.11 1743.92,-1055.11 1743.92,-1055.11 1906.83,-1055.11 1906.83,-1055.11 1910.79,-1055.11 1914.75,-1059.06 1914.75,-1063.02 1914.75,-1063.02 1914.75,-1070.94 1914.75,-1070.94 1914.75,-1074.9 1910.79,-1078.86 1906.83,-1078.86"/>
<text text-anchor="middle" x="1825.38" y="-1061.56" font-family="Arial" font-size="14.00" fill="#c6c5fe">utils/firebaseStorageUtils.js</text>
</g>
<!-- utils/firebaseDatabaseUtils.js&#45;&gt;utils/firebaseStorageUtils.js -->
<g id="edge97" class="edge">
<title>utils/firebaseDatabaseUtils.js&#45;&gt;utils/firebaseStorageUtils.js</title>
<path fill="none" stroke="#757575" d="M1700.41,-1066.98C1708.4,-1066.98 1716.5,-1066.98 1724.53,-1066.98"/>
<polygon fill="#757575" stroke="#757575" points="1724.31,-1070.48 1734.31,-1066.98 1724.31,-1063.48 1724.31,-1070.48"/>
</g>
<!-- utils/imageUtils.js&#45;&gt;boot/firebase.js -->
<g id="edge99" class="edge">
<title>utils/imageUtils.js&#45;&gt;boot/firebase.js</title>
<path fill="none" stroke="#757575" d="M1223.29,-1387.35C1318.5,-1410.47 1542.41,-1450.72 1700,-1366.98 1838.18,-1293.55 1856.73,-1233.31 1914.75,-1087.98 1977.53,-930.72 1998.81,-379.5 2002.78,-258.56"/>
<polygon fill="#757575" stroke="#757575" points="2006.27,-258.71 2003.1,-248.6 1999.28,-258.48 2006.27,-258.71"/>
</g>
<!-- utils/imageUtils.js&#45;&gt;stores/bibliografiaStore.js -->
<g id="edge100" class="edge">
<title>utils/imageUtils.js&#45;&gt;stores/bibliografiaStore.js</title>
<path fill="none" stroke="#757575" d="M1237.49,-1368.3C1299.89,-1359.38 1398.96,-1339.58 1474.75,-1297.98 1594.73,-1232.12 1627.27,-1203.93 1700,-1087.98 1780.8,-959.18 1812.43,-774.1 1821.43,-709.39"/>
<polygon fill="#757575" stroke="#757575" points="1824.88,-709.98 1822.74,-699.6 1817.94,-709.05 1824.88,-709.98"/>
</g>
<!-- utils/imageUtils.js&#45;&gt;stores/coversStore.js -->
<g id="edge101" class="edge">
<title>utils/imageUtils.js&#45;&gt;stores/coversStore.js</title>
<path fill="none" stroke="#757575" d="M1210.74,-1362.7C1234.96,-1352.23 1267.05,-1335.03 1287.75,-1310.98 1316.12,-1278.01 1291.47,-1249.13 1323.75,-1219.98 1324.82,-1219.02 1325.92,-1218.1 1327.07,-1217.22"/>
<polygon fill="#757575" stroke="#757575" points="1328.58,-1220.41 1335.15,-1212.1 1324.83,-1214.49 1328.58,-1220.41"/>
</g>
<!-- utils/imageUtils.js&#45;&gt;stores/undoStore.js -->
<g id="edge102" class="edge">
<title>utils/imageUtils.js&#45;&gt;stores/undoStore.js</title>
<path fill="none" stroke="#757575" d="M1237.35,-1371.06C1255.14,-1367.37 1273.64,-1360.74 1287.75,-1348.98 1318.33,-1323.51 1294.53,-1294.01 1323.75,-1266.98 1327.26,-1263.74 1331.19,-1260.89 1335.37,-1258.4"/>
<polygon fill="#757575" stroke="#757575" points="1336.84,-1261.58 1344.14,-1253.9 1333.64,-1255.36 1336.84,-1261.58"/>
</g>
<!-- utils/imageUtils.js&#45;&gt;utils/firebaseDatabaseUtils.js -->
<g id="edge103" class="edge">
<title>utils/imageUtils.js&#45;&gt;utils/firebaseDatabaseUtils.js</title>
<path fill="none" stroke="#757575" d="M1216.75,-1362.62C1238.34,-1355.09 1265.24,-1344.51 1287.75,-1331.98 1305.23,-1322.25 1305.83,-1313.87 1323.75,-1304.98 1386.26,-1273.97 1418.4,-1303.13 1474.75,-1261.98 1537.33,-1216.28 1578.59,-1130.51 1595.58,-1089.69"/>
<polygon fill="#757575" stroke="#757575" points="1598.74,-1091.2 1599.24,-1080.62 1592.25,-1088.58 1598.74,-1091.2"/>
</g>
<!-- utils/imageUtils.js&#45;&gt;utils/firebaseStorageUtils.js -->
<g id="edge104" class="edge">
<title>utils/imageUtils.js&#45;&gt;utils/firebaseStorageUtils.js</title>
<path fill="none" stroke="#757575" d="M1237.26,-1377.49C1358.1,-1381.42 1626.57,-1383.96 1700,-1332.98 1784.13,-1274.58 1812.81,-1144.03 1821.26,-1090.53"/>
<polygon fill="#757575" stroke="#757575" points="1824.71,-1091.13 1822.7,-1080.73 1817.79,-1090.11 1824.71,-1091.13"/>
</g>
<!-- components/Filter.vue -->
<g id="node25" class="node">
<title>components/Filter.vue</title>
<path fill="none" stroke="#c6c5fe" d="M996.83,-913.86C996.83,-913.86 863.92,-913.86 863.92,-913.86 859.96,-913.86 856,-909.9 856,-905.94 856,-905.94 856,-898.02 856,-898.02 856,-894.06 859.96,-890.11 863.92,-890.11 863.92,-890.11 996.83,-890.11 996.83,-890.11 1000.79,-890.11 1004.75,-894.06 1004.75,-898.02 1004.75,-898.02 1004.75,-905.94 1004.75,-905.94 1004.75,-909.9 1000.79,-913.86 996.83,-913.86"/>
<text text-anchor="middle" x="930.38" y="-896.56" font-family="Arial" font-size="14.00" fill="#c6c5fe">components/Filter.vue</text>
</g>
<!-- components/Filter.vue&#45;&gt;stores/collaneStore.js -->
<g id="edge31" class="edge">
<title>components/Filter.vue&#45;&gt;stores/collaneStore.js</title>
<path fill="none" stroke="#757575" d="M996.5,-914.34C1007.89,-917.86 1019.34,-922.32 1029.5,-927.98 1048.73,-938.68 1045.9,-951.96 1065.5,-961.98 1073.97,-966.31 1083.22,-969.75 1092.64,-972.49"/>
<polygon fill="#757575" stroke="#757575" points="1091.72,-975.87 1102.28,-975 1093.49,-969.09 1091.72,-975.87"/>
</g>
<!-- components/Filter.vue&#45;&gt;stores/editoriStore.js -->
<g id="edge32" class="edge">
<title>components/Filter.vue&#45;&gt;stores/editoriStore.js</title>
<path fill="none" stroke="#757575" d="M1004.99,-913.73C1033.64,-918.31 1066.54,-923.56 1095.75,-928.23"/>
<polygon fill="#757575" stroke="#757575" points="1094.83,-931.62 1105.26,-929.75 1095.94,-924.71 1094.83,-931.62"/>
</g>
<!-- components/Filter.vue&#45;&gt;stores/lingueStore.js -->
<g id="edge34" class="edge">
<title>components/Filter.vue&#45;&gt;stores/lingueStore.js</title>
<path fill="none" stroke="#757575" d="M954.4,-914.14C975.09,-925.6 1005.78,-943.97 1029.5,-963.98 1047.78,-979.4 1044.66,-992.24 1065.5,-1003.98 1074.88,-1009.26 1085.34,-1013.25 1095.98,-1016.24"/>
<polygon fill="#757575" stroke="#757575" points="1095.08,-1019.62 1105.63,-1018.65 1096.78,-1012.83 1095.08,-1019.62"/>
</g>
<!-- stores/filtersStore.js -->
<g id="node26" class="node">
<title>stores/filtersStore.js</title>
<path fill="none" stroke="#cfffac" d="M1235.96,-910.86C1235.96,-910.86 1117.29,-910.86 1117.29,-910.86 1113.33,-910.86 1109.38,-906.9 1109.38,-902.94 1109.38,-902.94 1109.38,-895.02 1109.38,-895.02 1109.38,-891.06 1113.33,-887.11 1117.29,-887.11 1117.29,-887.11 1235.96,-887.11 1235.96,-887.11 1239.92,-887.11 1243.88,-891.06 1243.88,-895.02 1243.88,-895.02 1243.88,-902.94 1243.88,-902.94 1243.88,-906.9 1239.92,-910.86 1235.96,-910.86"/>
<text text-anchor="middle" x="1176.62" y="-893.56" font-family="Arial" font-size="14.00" fill="#cfffac">stores/filtersStore.js</text>
</g>
<!-- components/Filter.vue&#45;&gt;stores/filtersStore.js -->
<g id="edge33" class="edge">
<title>components/Filter.vue&#45;&gt;stores/filtersStore.js</title>
<path fill="none" stroke="#757575" d="M1004.99,-901.08C1034.38,-900.72 1068.26,-900.3 1098.03,-899.93"/>
<polygon fill="#757575" stroke="#757575" points="1097.76,-903.44 1107.71,-899.81 1097.67,-896.44 1097.76,-903.44"/>
</g>
<!-- components/InitializationProgress.vue -->
<g id="node27" class="node">
<title>components/InitializationProgress.vue</title>
<path fill="none" stroke="#cfffac" d="M787.33,-957.86C787.33,-957.86 559.17,-957.86 559.17,-957.86 555.21,-957.86 551.25,-953.9 551.25,-949.94 551.25,-949.94 551.25,-942.02 551.25,-942.02 551.25,-938.06 555.21,-934.11 559.17,-934.11 559.17,-934.11 787.33,-934.11 787.33,-934.11 791.29,-934.11 795.25,-938.06 795.25,-942.02 795.25,-942.02 795.25,-949.94 795.25,-949.94 795.25,-953.9 791.29,-957.86 787.33,-957.86"/>
<text text-anchor="middle" x="673.25" y="-940.56" font-family="Arial" font-size="14.00" fill="#cfffac">components/InitializationProgress.vue</text>
</g>
<!-- composables/version.js -->
<g id="node28" class="node">
<title>composables/version.js</title>
<path fill="none" stroke="#cfffac" d="M149.08,-900.86C149.08,-900.86 7.92,-900.86 7.92,-900.86 3.96,-900.86 0,-896.9 0,-892.94 0,-892.94 0,-885.02 0,-885.02 0,-881.06 3.96,-877.11 7.92,-877.11 7.92,-877.11 149.08,-877.11 149.08,-877.11 153.04,-877.11 157,-881.06 157,-885.02 157,-885.02 157,-892.94 157,-892.94 157,-896.9 153.04,-900.86 149.08,-900.86"/>
<text text-anchor="middle" x="78.5" y="-883.56" font-family="Arial" font-size="14.00" fill="#cfffac">composables/version.js</text>
</g>
<!-- firebase/config.js -->
<g id="node29" class="node">
<title>firebase/config.js</title>
<path fill="none" stroke="#cfffac" d="M129.21,-942.86C129.21,-942.86 27.79,-942.86 27.79,-942.86 23.83,-942.86 19.88,-938.9 19.88,-934.94 19.88,-934.94 19.88,-927.02 19.88,-927.02 19.88,-923.06 23.83,-919.11 27.79,-919.11 27.79,-919.11 129.21,-919.11 129.21,-919.11 133.17,-919.11 137.12,-923.06 137.12,-927.02 137.12,-927.02 137.12,-934.94 137.12,-934.94 137.12,-938.9 133.17,-942.86 129.21,-942.86"/>
<text text-anchor="middle" x="78.5" y="-925.56" font-family="Arial" font-size="14.00" fill="#cfffac">firebase/config.js</text>
</g>
<!-- layouts/MainLayout.vue -->
<g id="node30" class="node">
<title>layouts/MainLayout.vue</title>
<path fill="none" stroke="#c6c5fe" d="M744.58,-444.86C744.58,-444.86 601.92,-444.86 601.92,-444.86 597.96,-444.86 594,-440.9 594,-436.94 594,-436.94 594,-429.02 594,-429.02 594,-425.06 597.96,-421.11 601.92,-421.11 601.92,-421.11 744.58,-421.11 744.58,-421.11 748.54,-421.11 752.5,-425.06 752.5,-429.02 752.5,-429.02 752.5,-436.94 752.5,-436.94 752.5,-440.9 748.54,-444.86 744.58,-444.86"/>
<text text-anchor="middle" x="673.25" y="-427.56" font-family="Arial" font-size="14.00" fill="#c6c5fe">layouts/MainLayout.vue</text>
</g>
<!-- layouts/MainLayout.vue&#45;&gt;boot/firebase.js -->
<g id="edge35" class="edge">
<title>layouts/MainLayout.vue&#45;&gt;boot/firebase.js</title>
<path fill="none" stroke="#757575" d="M681.97,-420.74C710.52,-375.63 809.54,-220.61 831.25,-205.98 1045.4,-61.65 1140.01,-78.98 1398.25,-78.98 1398.25,-78.98 1398.25,-78.98 1606.38,-78.98 1744.47,-78.98 1795.21,-47.85 1914.75,-116.98 1952.98,-139.09 1979.94,-184.87 1993.5,-212.46"/>
<polygon fill="#757575" stroke="#757575" points="1990.25,-213.79 1997.68,-221.35 1996.59,-210.81 1990.25,-213.79"/>
</g>
<!-- layouts/MainLayout.vue&#45;&gt;stores/authStore.js -->
<g id="edge37" class="edge">
<title>layouts/MainLayout.vue&#45;&gt;stores/authStore.js</title>
<path fill="none" stroke="#757575" d="M680.73,-445.04C699.13,-477.87 755.33,-568.82 831.25,-604.98 916.83,-645.74 1028.23,-643.74 1100.81,-636.28"/>
<polygon fill="#757575" stroke="#757575" points="1101.05,-639.77 1110.61,-635.21 1100.29,-632.82 1101.05,-639.77"/>
</g>
<!-- layouts/MainLayout.vue&#45;&gt;stores/userStore.js -->
<g id="edge38" class="edge">
<title>layouts/MainLayout.vue&#45;&gt;stores/userStore.js</title>
<path fill="none" stroke="#757575" d="M752.83,-429.13C870.14,-424.81 1097.63,-422.03 1287.75,-452.98 1310.26,-456.65 1334.61,-463.58 1354.72,-470.15"/>
<polygon fill="#757575" stroke="#757575" points="1353.38,-473.4 1363.97,-473.26 1355.61,-466.76 1353.38,-473.4"/>
</g>
<!-- layouts/MainLayout.vue&#45;&gt;components/Filter.vue -->
<g id="edge36" class="edge">
<title>layouts/MainLayout.vue&#45;&gt;components/Filter.vue</title>
<path fill="none" stroke="#757575" d="M677.47,-445.07C690.74,-493.5 744.58,-677 831.25,-804.98 851.93,-835.53 883.24,-864.42 904.91,-882.6"/>
<polygon fill="#757575" stroke="#757575" points="902.43,-885.1 912.37,-888.75 906.88,-879.69 902.43,-885.1"/>
</g>
<!-- utils/theme.js&#45;&gt;stores/userStore.js -->
<g id="edge105" class="edge">
<title>utils/theme.js&#45;&gt;stores/userStore.js</title>
<path fill="none" stroke="#757575" d="M1224.68,-356.3C1245.01,-360.02 1268.5,-366.33 1287.75,-376.98 1327.72,-399.09 1363.2,-439.7 1382.62,-464.63"/>
<polygon fill="#757575" stroke="#757575" points="1379.72,-466.6 1388.56,-472.44 1385.29,-462.36 1379.72,-466.6"/>
</g>
<!-- pages/BibliografiaPage.vue -->
<g id="node32" class="node">
<title>pages/BibliografiaPage.vue</title>
<path fill="none" stroke="#c6c5fe" d="M507.33,-795.86C507.33,-795.86 342.92,-795.86 342.92,-795.86 338.96,-795.86 335,-791.9 335,-787.94 335,-787.94 335,-780.02 335,-780.02 335,-776.06 338.96,-772.11 342.92,-772.11 342.92,-772.11 507.33,-772.11 507.33,-772.11 511.29,-772.11 515.25,-776.06 515.25,-780.02 515.25,-780.02 515.25,-787.94 515.25,-787.94 515.25,-791.9 511.29,-795.86 507.33,-795.86"/>
<text text-anchor="middle" x="425.12" y="-778.56" font-family="Arial" font-size="14.00" fill="#c6c5fe">pages/BibliografiaPage.vue</text>
</g>
<!-- pages/BibliografiaPage.vue&#45;&gt;assets/placeholder.jpg -->
<g id="edge40" class="edge">
<title>pages/BibliografiaPage.vue&#45;&gt;assets/placeholder.jpg</title>
<path fill="none" stroke="#757575" d="M504.62,-796.32C508.5,-798.76 512.09,-801.63 515.25,-804.98 579.02,-872.59 504.21,-930.82 551.25,-1010.98 700.31,-1265.01 801.21,-1298.97 1065.5,-1428.98 1073.71,-1433.02 1082.57,-1436.45 1091.59,-1439.36"/>
<polygon fill="#757575" stroke="#757575" points="1090.59,-1442.71 1101.17,-1442.22 1092.59,-1436 1090.59,-1442.71"/>
</g>
<!-- pages/BibliografiaPage.vue&#45;&gt;boot/firebase.js -->
<g id="edge41" class="edge">
<title>pages/BibliografiaPage.vue&#45;&gt;boot/firebase.js</title>
<path fill="none" stroke="#757575" d="M428.02,-771.73C441.81,-682.92 526.87,-140.62 551.25,-115.98 671.75,5.81 758.05,-40.98 929.38,-40.98 929.38,-40.98 929.38,-40.98 1177.62,-40.98 1433.15,-40.98 1486.17,-124.32 1736,-177.98 1814.99,-194.95 1835.97,-193.09 1914.75,-210.98 1926.19,-213.58 1938.38,-216.66 1949.94,-219.74"/>
<polygon fill="#757575" stroke="#757575" points="1948.76,-223.05 1959.33,-222.28 1950.59,-216.29 1948.76,-223.05"/>
</g>
<!-- pages/BibliografiaPage.vue&#45;&gt;components/BookDetailContent.vue -->
<g id="edge42" class="edge">
<title>pages/BibliografiaPage.vue&#45;&gt;components/BookDetailContent.vue</title>
<path fill="none" stroke="#757575" d="M515.68,-783.98C525.46,-783.98 535.56,-783.98 545.68,-783.98"/>
<polygon fill="#757575" stroke="#757575" points="545.6,-787.48 555.6,-783.98 545.6,-780.48 545.6,-787.48"/>
</g>
<!-- pages/BibliografiaPage.vue&#45;&gt;stores/bibliografiaStore.js -->
<g id="edge44" class="edge">
<title>pages/BibliografiaPage.vue&#45;&gt;stores/bibliografiaStore.js</title>
<path fill="none" stroke="#757575" d="M426.77,-771.66C431.11,-694.71 458.55,-280.76 551.25,-205.98 716.69,-72.53 839.38,-110.92 1029.5,-205.98 1053.35,-217.91 1042.59,-240.33 1065.5,-253.98 1151.29,-305.1 1195.52,-248.7 1287.75,-286.98 1518.13,-382.59 1739.79,-598.76 1805.1,-665.78"/>
<polygon fill="#757575" stroke="#757575" points="1802.41,-668.04 1811.88,-672.79 1807.44,-663.17 1802.41,-668.04"/>
</g>
<!-- pages/BibliografiaPage.vue&#45;&gt;stores/collaneStore.js -->
<g id="edge45" class="edge">
<title>pages/BibliografiaPage.vue&#45;&gt;stores/collaneStore.js</title>
<path fill="none" stroke="#757575" d="M497.92,-796.35C504,-798.73 509.88,-801.58 515.25,-804.98 536.9,-818.67 529.76,-836.04 551.25,-849.98 659.14,-919.98 705.57,-895.7 831.25,-922.98 920.06,-942.26 1022.79,-959.51 1092.78,-970.51"/>
<polygon fill="#757575" stroke="#757575" points="1091.81,-973.9 1102.23,-971.99 1092.89,-966.99 1091.81,-973.9"/>
</g>
<!-- pages/BibliografiaPage.vue&#45;&gt;stores/editoriStore.js -->
<g id="edge46" class="edge">
<title>pages/BibliografiaPage.vue&#45;&gt;stores/editoriStore.js</title>
<path fill="none" stroke="#757575" d="M488.17,-796.26C497.37,-798.76 506.65,-801.65 515.25,-804.98 532.32,-811.59 533.83,-819.37 551.25,-824.98 653.09,-857.81 934.15,-832.43 1029.5,-880.98 1050.52,-891.68 1044.88,-908.53 1065.5,-919.98 1074.85,-925.17 1085.25,-929.1 1095.83,-932.07"/>
<polygon fill="#757575" stroke="#757575" points="1094.86,-935.44 1105.41,-934.47 1096.56,-928.65 1094.86,-935.44"/>
</g>
<!-- pages/BibliografiaPage.vue&#45;&gt;stores/lingueStore.js -->
<g id="edge48" class="edge">
<title>pages/BibliografiaPage.vue&#45;&gt;stores/lingueStore.js</title>
<path fill="none" stroke="#757575" d="M504.03,-796.25C508.11,-798.7 511.9,-801.59 515.25,-804.98 567.07,-857.47 497.05,-916.96 551.25,-966.98 628.59,-1038.35 945.24,-1035 1095.61,-1029.08"/>
<polygon fill="#757575" stroke="#757575" points="1095.66,-1032.59 1105.51,-1028.68 1095.37,-1025.59 1095.66,-1032.59"/>
</g>
<!-- pages/BibliografiaPage.vue&#45;&gt;stores/userStore.js -->
<g id="edge49" class="edge">
<title>pages/BibliografiaPage.vue&#45;&gt;stores/userStore.js</title>
<path fill="none" stroke="#757575" d="M443.26,-771.67C514.76,-721.27 798.07,-531.45 1065.5,-488.98 1153.15,-475.06 1255.42,-476.77 1323.21,-480.36"/>
<polygon fill="#757575" stroke="#757575" points="1322.92,-483.85 1333.1,-480.91 1323.32,-476.86 1322.92,-483.85"/>
</g>
<!-- pages/BibliografiaPage.vue&#45;&gt;stores/filtersStore.js -->
<g id="edge47" class="edge">
<title>pages/BibliografiaPage.vue&#45;&gt;stores/filtersStore.js</title>
<path fill="none" stroke="#757575" d="M493.84,-796.32C512.41,-799.44 532.57,-802.58 551.25,-804.98 762.92,-832.22 822.93,-794.37 1029.5,-847.98 1046.45,-852.38 1049.13,-857.76 1065.5,-863.98 1083.75,-870.91 1104.04,-877.63 1122.17,-883.3"/>
<polygon fill="#757575" stroke="#757575" points="1121.12,-886.63 1131.71,-886.24 1123.18,-879.94 1121.12,-886.63"/>
</g>
<!-- pages/BibliografiaPage.vue&#45;&gt;components/InitializationProgress.vue -->
<g id="edge43" class="edge">
<title>pages/BibliografiaPage.vue&#45;&gt;components/InitializationProgress.vue</title>
<path fill="none" stroke="#757575" d="M503.29,-796.35C507.6,-798.77 511.64,-801.62 515.25,-804.98 554.46,-841.46 511.68,-883.89 551.25,-919.98 554.59,-923.03 558.2,-925.75 562.02,-928.18"/>
<polygon fill="#757575" stroke="#757575" points="560.1,-931.13 570.55,-932.91 563.49,-925 560.1,-931.13"/>
</g>
<!-- pages/BibliografiaPage.vue&#45;&gt;utils/theme.js -->
<g id="edge50" class="edge">
<title>pages/BibliografiaPage.vue&#45;&gt;utils/theme.js</title>
<path fill="none" stroke="#757575" d="M425.86,-771.69C425.42,-718.36 431.47,-505.48 551.25,-411.98 593.27,-379.18 976.56,-380.24 1029.5,-373.98 1058.62,-370.54 1090.84,-365.59 1117.59,-361.16"/>
<polygon fill="#757575" stroke="#757575" points="1117.92,-364.66 1127.21,-359.56 1116.77,-357.75 1117.92,-364.66"/>
</g>
<!-- pages/ConfigurationPage.vue -->
<g id="node33" class="node">
<title>pages/ConfigurationPage.vue</title>
<path fill="none" stroke="#c6c5fe" d="M1019.33,-736.86C1019.33,-736.86 841.42,-736.86 841.42,-736.86 837.46,-736.86 833.5,-732.9 833.5,-728.94 833.5,-728.94 833.5,-721.02 833.5,-721.02 833.5,-717.06 837.46,-713.11 841.42,-713.11 841.42,-713.11 1019.33,-713.11 1019.33,-713.11 1023.29,-713.11 1027.25,-717.06 1027.25,-721.02 1027.25,-721.02 1027.25,-728.94 1027.25,-728.94 1027.25,-732.9 1023.29,-736.86 1019.33,-736.86"/>
<text text-anchor="middle" x="930.38" y="-719.56" font-family="Arial" font-size="14.00" fill="#c6c5fe">pages/ConfigurationPage.vue</text>
</g>
<!-- pages/ConfigurationPage.vue&#45;&gt;config/bookDetailsConfig.js -->
<g id="edge51" class="edge">
<title>pages/ConfigurationPage.vue&#45;&gt;config/bookDetailsConfig.js</title>
<path fill="none" stroke="#757575" d="M1027.56,-717.1C1043.35,-715.81 1059.75,-714.47 1075.63,-713.17"/>
<polygon fill="#757575" stroke="#757575" points="1075.9,-716.66 1085.58,-712.35 1075.32,-709.68 1075.9,-716.66"/>
</g>
<!-- pages/ConfigurationPage.vue&#45;&gt;stores/bibliografiaStore.js -->
<g id="edge52" class="edge">
<title>pages/ConfigurationPage.vue&#45;&gt;stores/bibliografiaStore.js</title>
<path fill="none" stroke="#757575" d="M962.2,-712.69C989.01,-702.7 1029.14,-689.41 1065.5,-683.98 1302.42,-648.58 1585.62,-664.47 1729.84,-676.66"/>
<polygon fill="#757575" stroke="#757575" points="1729.47,-680.14 1739.74,-677.51 1730.07,-673.17 1729.47,-680.14"/>
</g>
<!-- pages/ConfigurationPage.vue&#45;&gt;stores/collaneStore.js -->
<g id="edge53" class="edge">
<title>pages/ConfigurationPage.vue&#45;&gt;stores/collaneStore.js</title>
<path fill="none" stroke="#757575" d="M991.25,-737.27C1005.64,-742.89 1019.67,-751.08 1029.5,-762.98 1086.72,-832.29 1002.25,-898.13 1065.5,-961.98 1073.12,-969.68 1082.64,-975.02 1092.86,-978.67"/>
<polygon fill="#757575" stroke="#757575" points="1091.69,-981.97 1102.27,-981.46 1093.68,-975.26 1091.69,-981.97"/>
</g>
<!-- pages/ConfigurationPage.vue&#45;&gt;stores/editoriStore.js -->
<g id="edge54" class="edge">
<title>pages/ConfigurationPage.vue&#45;&gt;stores/editoriStore.js</title>
<path fill="none" stroke="#757575" d="M990.12,-737.28C1004.77,-742.91 1019.22,-751.1 1029.5,-762.98 1076.35,-817.11 1013.95,-870.3 1065.5,-919.98 1073.94,-928.12 1084.51,-933.59 1095.74,-937.2"/>
<polygon fill="#757575" stroke="#757575" points="1094.63,-940.52 1105.19,-939.72 1096.43,-933.76 1094.63,-940.52"/>
</g>
<!-- pages/ConfigurationPage.vue&#45;&gt;stores/userStore.js -->
<g id="edge55" class="edge">
<title>pages/ConfigurationPage.vue&#45;&gt;stores/userStore.js</title>
<path fill="none" stroke="#757575" d="M941.28,-712.83C971.94,-675.23 1063.39,-563.2 1065.5,-561.98 1152.22,-511.91 1190.78,-549.96 1287.75,-524.98 1311.3,-518.92 1336.94,-510.01 1357.59,-502.24"/>
<polygon fill="#757575" stroke="#757575" points="1358.7,-505.57 1366.79,-498.73 1356.2,-499.03 1358.7,-505.57"/>
</g>
<!-- pages/ConfigurationPage.vue&#45;&gt;utils/firebaseDatabaseUtils.js -->
<g id="edge56" class="edge">
<title>pages/ConfigurationPage.vue&#45;&gt;utils/firebaseDatabaseUtils.js</title>
<path fill="none" stroke="#757575" d="M1027.52,-735.36C1163.85,-751.67 1404.6,-786.79 1474.75,-837.98 1547.06,-890.75 1584.62,-996.9 1598.26,-1043.8"/>
<polygon fill="#757575" stroke="#757575" points="1594.82,-1044.48 1600.88,-1053.17 1601.56,-1042.59 1594.82,-1044.48"/>
</g>
<!-- pages/ConfigurationPage.vue&#45;&gt;utils/theme.js -->
<g id="edge57" class="edge">
<title>pages/ConfigurationPage.vue&#45;&gt;utils/theme.js</title>
<path fill="none" stroke="#757575" d="M943.06,-712.8C962.64,-691.94 1002.6,-647.51 1029.5,-604.98 1049.48,-573.39 1047.64,-561.81 1065.5,-528.98 1096.99,-471.08 1139.14,-405.88 1161.03,-372.78"/>
<polygon fill="#757575" stroke="#757575" points="1163.94,-374.74 1166.56,-364.47 1158.11,-370.87 1163.94,-374.74"/>
</g>
<!-- pages/ErrorNotFound.vue -->
<g id="node34" class="node">
<title>pages/ErrorNotFound.vue</title>
<path fill="none" stroke="#cfffac" d="M502.83,-921.86C502.83,-921.86 347.42,-921.86 347.42,-921.86 343.46,-921.86 339.5,-917.9 339.5,-913.94 339.5,-913.94 339.5,-906.02 339.5,-906.02 339.5,-902.06 343.46,-898.11 347.42,-898.11 347.42,-898.11 502.83,-898.11 502.83,-898.11 506.79,-898.11 510.75,-902.06 510.75,-906.02 510.75,-906.02 510.75,-913.94 510.75,-913.94 510.75,-917.9 506.79,-921.86 502.83,-921.86"/>
<text text-anchor="middle" x="425.12" y="-904.56" font-family="Arial" font-size="14.00" fill="#cfffac">pages/ErrorNotFound.vue</text>
</g>
<!-- pages/ErrorPage.vue -->
<g id="node35" class="node">
<title>pages/ErrorPage.vue</title>
<path fill="none" stroke="#cfffac" d="M488.96,-879.86C488.96,-879.86 361.29,-879.86 361.29,-879.86 357.33,-879.86 353.38,-875.9 353.38,-871.94 353.38,-871.94 353.38,-864.02 353.38,-864.02 353.38,-860.06 357.33,-856.11 361.29,-856.11 361.29,-856.11 488.96,-856.11 488.96,-856.11 492.92,-856.11 496.88,-860.06 496.88,-864.02 496.88,-864.02 496.88,-871.94 496.88,-871.94 496.88,-875.9 492.92,-879.86 488.96,-879.86"/>
<text text-anchor="middle" x="425.12" y="-862.56" font-family="Arial" font-size="14.00" fill="#cfffac">pages/ErrorPage.vue</text>
</g>
<!-- pages/LoadingPage.vue -->
<g id="node36" class="node">
<title>pages/LoadingPage.vue</title>
<path fill="none" stroke="#cfffac" d="M497.96,-837.86C497.96,-837.86 352.29,-837.86 352.29,-837.86 348.33,-837.86 344.38,-833.9 344.38,-829.94 344.38,-829.94 344.38,-822.02 344.38,-822.02 344.38,-818.06 348.33,-814.11 352.29,-814.11 352.29,-814.11 497.96,-814.11 497.96,-814.11 501.92,-814.11 505.88,-818.06 505.88,-822.02 505.88,-822.02 505.88,-829.94 505.88,-829.94 505.88,-833.9 501.92,-837.86 497.96,-837.86"/>
<text text-anchor="middle" x="425.12" y="-820.56" font-family="Arial" font-size="14.00" fill="#cfffac">pages/LoadingPage.vue</text>
</g>
<!-- pages/LoginPage.vue -->
<g id="node37" class="node">
<title>pages/LoginPage.vue</title>
<path fill="none" stroke="#c6c5fe" d="M995.71,-364.86C995.71,-364.86 865.04,-364.86 865.04,-364.86 861.08,-364.86 857.12,-360.9 857.12,-356.94 857.12,-356.94 857.12,-349.02 857.12,-349.02 857.12,-345.06 861.08,-341.11 865.04,-341.11 865.04,-341.11 995.71,-341.11 995.71,-341.11 999.67,-341.11 1003.62,-345.06 1003.62,-349.02 1003.62,-349.02 1003.62,-356.94 1003.62,-356.94 1003.62,-360.9 999.67,-364.86 995.71,-364.86"/>
<text text-anchor="middle" x="930.38" y="-347.56" font-family="Arial" font-size="14.00" fill="#c6c5fe">pages/LoginPage.vue</text>
</g>
<!-- pages/LoginPage.vue&#45;&gt;boot/firebase.js -->
<g id="edge58" class="edge">
<title>pages/LoginPage.vue&#45;&gt;boot/firebase.js</title>
<path fill="none" stroke="#757575" d="M1003.84,-346.85C1013.29,-343.49 1022.2,-338.71 1029.5,-331.98 1070.43,-294.23 1020.83,-245.22 1065.5,-211.98 1135.13,-160.17 1738.87,-210.56 1939.21,-228.9"/>
<polygon fill="#757575" stroke="#757575" points="1938.62,-232.36 1948.9,-229.79 1939.27,-225.39 1938.62,-232.36"/>
</g>
<!-- pages/LoginPage.vue&#45;&gt;stores/authStore.js -->
<g id="edge59" class="edge">
<title>pages/LoginPage.vue&#45;&gt;stores/authStore.js</title>
<path fill="none" stroke="#757575" d="M936.24,-365.19C954.75,-411.03 1021.92,-571.92 1065.5,-603.98 1075.87,-611.61 1088.23,-616.7 1100.86,-620.05"/>
<polygon fill="#757575" stroke="#757575" points="1099.98,-623.44 1110.51,-622.23 1101.53,-616.61 1099.98,-623.44"/>
</g>
<!-- pages/LoginPage.vue&#45;&gt;stores/userStore.js -->
<g id="edge60" class="edge">
<title>pages/LoginPage.vue&#45;&gt;stores/userStore.js</title>
<path fill="none" stroke="#757575" d="M1004.03,-364.04C1100.5,-378.97 1261.79,-404.86 1287.75,-414.98 1320.18,-427.62 1353.21,-450.43 1374.61,-466.78"/>
<polygon fill="#757575" stroke="#757575" points="1372.35,-469.46 1382.38,-472.85 1376.66,-463.94 1372.35,-469.46"/>
</g>
<!-- pages/NewBookPage.vue -->
<g id="node38" class="node">
<title>pages/NewBookPage.vue</title>
<path fill="none" stroke="#c6c5fe" d="M1254.33,-244.86C1254.33,-244.86 1098.92,-244.86 1098.92,-244.86 1094.96,-244.86 1091,-240.9 1091,-236.94 1091,-236.94 1091,-229.02 1091,-229.02 1091,-225.06 1094.96,-221.11 1098.92,-221.11 1098.92,-221.11 1254.33,-221.11 1254.33,-221.11 1258.29,-221.11 1262.25,-225.06 1262.25,-229.02 1262.25,-229.02 1262.25,-236.94 1262.25,-236.94 1262.25,-240.9 1258.29,-244.86 1254.33,-244.86"/>
<text text-anchor="middle" x="1176.62" y="-227.56" font-family="Arial" font-size="14.00" fill="#c6c5fe">pages/NewBookPage.vue</text>
</g>
<!-- pages/NewBookPage.vue&#45;&gt;stores/bibliografiaStore.js -->
<g id="edge61" class="edge">
<title>pages/NewBookPage.vue&#45;&gt;stores/bibliografiaStore.js</title>
<path fill="none" stroke="#757575" d="M1262.72,-237.72C1402.11,-246.23 1666.98,-265.77 1700,-292.98 1816.45,-388.96 1825.45,-593.48 1825,-662.6"/>
<polygon fill="#757575" stroke="#757575" points="1821.5,-662.31 1824.85,-672.36 1828.5,-662.41 1821.5,-662.31"/>
</g>
<!-- pages/NewBookPage.vue&#45;&gt;stores/userStore.js -->
<g id="edge62" class="edge">
<title>pages/NewBookPage.vue&#45;&gt;stores/userStore.js</title>
<path fill="none" stroke="#757575" d="M1207.51,-245.2C1231.39,-256.09 1264.58,-273.87 1287.75,-296.98 1338.23,-347.33 1374.07,-425.38 1389.61,-463.49"/>
<polygon fill="#757575" stroke="#757575" points="1386.27,-464.56 1393.22,-472.56 1392.77,-461.97 1386.27,-464.56"/>
</g>
<!-- pages/RegistrationPage.vue -->
<g id="node39" class="node">
<title>pages/RegistrationPage.vue</title>
<path fill="none" stroke="#c6c5fe" d="M1015.21,-322.86C1015.21,-322.86 845.54,-322.86 845.54,-322.86 841.58,-322.86 837.62,-318.9 837.62,-314.94 837.62,-314.94 837.62,-307.02 837.62,-307.02 837.62,-303.06 841.58,-299.11 845.54,-299.11 845.54,-299.11 1015.21,-299.11 1015.21,-299.11 1019.17,-299.11 1023.12,-303.06 1023.12,-307.02 1023.12,-307.02 1023.12,-314.94 1023.12,-314.94 1023.12,-318.9 1019.17,-322.86 1015.21,-322.86"/>
<text text-anchor="middle" x="930.38" y="-305.56" font-family="Arial" font-size="14.00" fill="#c6c5fe">pages/RegistrationPage.vue</text>
</g>
<!-- pages/RegistrationPage.vue&#45;&gt;boot/firebase.js -->
<g id="edge63" class="edge">
<title>pages/RegistrationPage.vue&#45;&gt;boot/firebase.js</title>
<path fill="none" stroke="#757575" d="M1017.16,-298.71C1021.59,-296.25 1025.75,-293.36 1029.5,-289.98 1068.01,-255.24 1024.55,-210.8 1065.5,-178.98 1183.39,-87.37 1586.77,-140.76 1736,-135.98 1815.4,-133.44 1842.21,-103.59 1914.75,-135.98 1950,-151.72 1977.07,-189.15 1991.61,-213.21"/>
<polygon fill="#757575" stroke="#757575" points="1988.42,-214.69 1996.46,-221.59 1994.48,-211.18 1988.42,-214.69"/>
</g>
<!-- pages/RegistrationPage.vue&#45;&gt;stores/authStore.js -->
<g id="edge64" class="edge">
<title>pages/RegistrationPage.vue&#45;&gt;stores/authStore.js</title>
<path fill="none" stroke="#757575" d="M1019.23,-323.32C1022.97,-325.79 1026.43,-328.65 1029.5,-331.98 1112.24,-421.56 981.76,-515.34 1065.5,-603.98 1074.9,-613.93 1087.44,-620 1100.69,-623.56"/>
<polygon fill="#757575" stroke="#757575" points="1099.94,-626.98 1110.46,-625.68 1101.43,-620.14 1099.94,-626.98"/>
</g>
<!-- pages/RegistrationPage.vue&#45;&gt;stores/userStore.js -->
<g id="edge65" class="edge">
<title>pages/RegistrationPage.vue&#45;&gt;stores/userStore.js</title>
<path fill="none" stroke="#757575" d="M994.44,-298.66C1069.37,-287.38 1195.78,-279.27 1287.75,-329.98 1341.51,-359.62 1375.27,-427.88 1389.87,-463.47"/>
<polygon fill="#757575" stroke="#757575" points="1386.46,-464.36 1393.38,-472.38 1392.97,-461.79 1386.46,-464.36"/>
</g>
<!-- pages/TablesEditPage.vue -->
<g id="node40" class="node">
<title>pages/TablesEditPage.vue</title>
<path fill="none" stroke="#c6c5fe" d="M1010.33,-996.86C1010.33,-996.86 850.42,-996.86 850.42,-996.86 846.46,-996.86 842.5,-992.9 842.5,-988.94 842.5,-988.94 842.5,-981.02 842.5,-981.02 842.5,-977.06 846.46,-973.11 850.42,-973.11 850.42,-973.11 1010.33,-973.11 1010.33,-973.11 1014.29,-973.11 1018.25,-977.06 1018.25,-981.02 1018.25,-981.02 1018.25,-988.94 1018.25,-988.94 1018.25,-992.9 1014.29,-996.86 1010.33,-996.86"/>
<text text-anchor="middle" x="930.38" y="-979.56" font-family="Arial" font-size="14.00" fill="#c6c5fe">pages/TablesEditPage.vue</text>
</g>
<!-- pages/TablesEditPage.vue&#45;&gt;stores/authStore.js -->
<g id="edge66" class="edge">
<title>pages/TablesEditPage.vue&#45;&gt;stores/authStore.js</title>
<path fill="none" stroke="#757575" d="M964.53,-972.66C986.57,-962.7 1014.19,-946.43 1029.5,-922.98 1088.22,-833.03 1003.59,-771.77 1065.5,-683.98 1079.3,-664.42 1101.66,-650.76 1122.64,-641.55"/>
<polygon fill="#757575" stroke="#757575" points="1123.79,-644.86 1131.71,-637.83 1121.13,-638.38 1123.79,-644.86"/>
</g>
<!-- pages/TablesEditPage.vue&#45;&gt;stores/collaneStore.js -->
<g id="edge67" class="edge">
<title>pages/TablesEditPage.vue&#45;&gt;stores/collaneStore.js</title>
<path fill="none" stroke="#757575" d="M1018.52,-984.27C1042.54,-984.07 1068.53,-983.86 1092.32,-983.66"/>
<polygon fill="#757575" stroke="#757575" points="1092.33,-987.16 1102.3,-983.58 1092.27,-980.16 1092.33,-987.16"/>
</g>
<!-- pages/TablesEditPage.vue&#45;&gt;stores/editoriStore.js -->
<g id="edge69" class="edge">
<title>pages/TablesEditPage.vue&#45;&gt;stores/editoriStore.js</title>
<path fill="none" stroke="#757575" d="M1000.06,-972.61C1029.85,-967.24 1064.91,-960.93 1095.84,-955.35"/>
<polygon fill="#757575" stroke="#757575" points="1096.32,-958.82 1105.54,-953.61 1095.08,-951.93 1096.32,-958.82"/>
</g>
<!-- pages/TablesEditPage.vue&#45;&gt;stores/lingueStore.js -->
<g id="edge70" class="edge">
<title>pages/TablesEditPage.vue&#45;&gt;stores/lingueStore.js</title>
<path fill="none" stroke="#757575" d="M1006.65,-997.31C1034.99,-1001.95 1067.29,-1007.24 1096.01,-1011.94"/>
<polygon fill="#757575" stroke="#757575" points="1095.31,-1015.37 1105.75,-1013.54 1096.44,-1008.47 1095.31,-1015.37"/>
</g>
<!-- pages/TablesEditPage.vue&#45;&gt;stores/coversStore.js -->
<g id="edge68" class="edge">
<title>pages/TablesEditPage.vue&#45;&gt;stores/coversStore.js</title>
<path fill="none" stroke="#757575" d="M942.39,-997.08C962.4,-1019.65 1004.93,-1070.39 1029.5,-1119.98 1054.22,-1169.87 1020.83,-1206.74 1065.5,-1239.98 1144.75,-1298.94 1192.13,-1264.76 1287.75,-1239.98 1305.47,-1235.39 1306.83,-1226.96 1323.75,-1219.98 1328.28,-1218.12 1333.02,-1216.36 1337.83,-1214.71"/>
<polygon fill="#757575" stroke="#757575" points="1338.53,-1218.16 1346.97,-1211.76 1336.38,-1211.5 1338.53,-1218.16"/>
</g>
<!-- pages/TablesEditPage.vue&#45;&gt;utils/firebaseDatabaseUtils.js -->
<g id="edge71" class="edge">
<title>pages/TablesEditPage.vue&#45;&gt;utils/firebaseDatabaseUtils.js</title>
<path fill="none" stroke="#757575" d="M951.84,-997.35C977.39,-1012.06 1022.94,-1035.89 1065.5,-1045.98 1212.87,-1080.94 1389.18,-1080.1 1499,-1074.75"/>
<polygon fill="#757575" stroke="#757575" points="1499.09,-1078.25 1508.9,-1074.24 1498.73,-1071.26 1499.09,-1078.25"/>
</g>
<!-- pages/Trash.vue -->
<g id="node41" class="node">
<title>pages/Trash.vue</title>
<path fill="none" stroke="#c6c5fe" d="M980.71,-1466.86C980.71,-1466.86 880.04,-1466.86 880.04,-1466.86 876.08,-1466.86 872.12,-1462.9 872.12,-1458.94 872.12,-1458.94 872.12,-1451.02 872.12,-1451.02 872.12,-1447.06 876.08,-1443.11 880.04,-1443.11 880.04,-1443.11 980.71,-1443.11 980.71,-1443.11 984.67,-1443.11 988.62,-1447.06 988.62,-1451.02 988.62,-1451.02 988.62,-1458.94 988.62,-1458.94 988.62,-1462.9 984.67,-1466.86 980.71,-1466.86"/>
<text text-anchor="middle" x="930.38" y="-1449.56" font-family="Arial" font-size="14.00" fill="#c6c5fe">pages/Trash.vue</text>
</g>
<!-- pages/Trash.vue&#45;&gt;assets/placeholder.jpg -->
<g id="edge72" class="edge">
<title>pages/Trash.vue&#45;&gt;assets/placeholder.jpg</title>
<path fill="none" stroke="#757575" d="M988.95,-1454.98C1019.23,-1454.98 1056.95,-1454.98 1090.54,-1454.98"/>
<polygon fill="#757575" stroke="#757575" points="1090.24,-1458.48 1100.24,-1454.98 1090.24,-1451.48 1090.24,-1458.48"/>
</g>
<!-- pages/Trash.vue&#45;&gt;boot/firebase.js -->
<g id="edge73" class="edge">
<title>pages/Trash.vue&#45;&gt;boot/firebase.js</title>
<path fill="none" stroke="#757575" d="M988.98,-1465.27C1012.62,-1469.16 1040.31,-1473.3 1065.5,-1475.98 1212.8,-1491.68 1250.12,-1494.98 1398.25,-1494.98 1398.25,-1494.98 1398.25,-1494.98 1606.38,-1494.98 1763.09,-1494.98 1829.8,-1455.67 1914.75,-1323.98 1974.51,-1231.34 1998.92,-408.91 2002.9,-258.53"/>
<polygon fill="#757575" stroke="#757575" points="2006.4,-258.73 2003.16,-248.65 1999.4,-258.55 2006.4,-258.73"/>
</g>
<!-- pages/UserManagementPage.vue -->
<g id="node42" class="node">
<title>pages/UserManagementPage.vue</title>
<path fill="none" stroke="#c6c5fe" d="M1279.83,-1230.86C1279.83,-1230.86 1073.42,-1230.86 1073.42,-1230.86 1069.46,-1230.86 1065.5,-1226.9 1065.5,-1222.94 1065.5,-1222.94 1065.5,-1215.02 1065.5,-1215.02 1065.5,-1211.06 1069.46,-1207.11 1073.42,-1207.11 1073.42,-1207.11 1279.83,-1207.11 1279.83,-1207.11 1283.79,-1207.11 1287.75,-1211.06 1287.75,-1215.02 1287.75,-1215.02 1287.75,-1222.94 1287.75,-1222.94 1287.75,-1226.9 1283.79,-1230.86 1279.83,-1230.86"/>
<text text-anchor="middle" x="1176.62" y="-1213.56" font-family="Arial" font-size="14.00" fill="#c6c5fe">pages/UserManagementPage.vue</text>
</g>
<!-- pages/UserManagementPage.vue&#45;&gt;stores/userStore.js -->
<g id="edge74" class="edge">
<title>pages/UserManagementPage.vue&#45;&gt;stores/userStore.js</title>
<path fill="none" stroke="#757575" d="M1197.89,-1206.69C1223.56,-1189.92 1266.97,-1157.28 1287.75,-1116.98 1345.04,-1005.85 1302.79,-961.24 1323.75,-837.98 1344.97,-713.17 1379.29,-565.36 1392.66,-509.19"/>
<polygon fill="#757575" stroke="#757575" points="1396.05,-510.08 1394.97,-499.54 1389.24,-508.46 1396.05,-510.08"/>
</g>
<!-- pages/UserManagementPage.vue&#45;&gt;utils/firebaseDatabaseUtils.js -->
<g id="edge75" class="edge">
<title>pages/UserManagementPage.vue&#45;&gt;utils/firebaseDatabaseUtils.js</title>
<path fill="none" stroke="#757575" d="M1237.84,-1206.63C1254.18,-1202.78 1271.77,-1198.16 1287.75,-1192.98 1304.24,-1187.64 1307.39,-1183.7 1323.75,-1177.98 1389.62,-1154.97 1409.96,-1160.88 1474.75,-1134.98 1510.22,-1120.8 1548.72,-1099.84 1574.46,-1084.94"/>
<polygon fill="#757575" stroke="#757575" points="1576.17,-1087.99 1583.03,-1079.92 1572.63,-1081.95 1576.17,-1087.99"/>
</g>
<!-- router/index.js -->
<g id="node43" class="node">
<title>router/index.js</title>
<path fill="none" stroke="#c6c5fe" d="M120.96,-816.86C120.96,-816.86 36.04,-816.86 36.04,-816.86 32.08,-816.86 28.12,-812.9 28.12,-808.94 28.12,-808.94 28.12,-801.02 28.12,-801.02 28.12,-797.06 32.08,-793.11 36.04,-793.11 36.04,-793.11 120.96,-793.11 120.96,-793.11 124.92,-793.11 128.88,-797.06 128.88,-801.02 128.88,-801.02 128.88,-808.94 128.88,-808.94 128.88,-812.9 124.92,-816.86 120.96,-816.86"/>
<text text-anchor="middle" x="78.5" y="-799.56" font-family="Arial" font-size="14.00" fill="#c6c5fe">router/index.js</text>
</g>
<!-- router/routes.js -->
<g id="node44" class="node">
<title>router/routes.js</title>
<path fill="none" stroke="#c6c5fe" d="M291.08,-816.86C291.08,-816.86 200.92,-816.86 200.92,-816.86 196.96,-816.86 193,-812.9 193,-808.94 193,-808.94 193,-801.02 193,-801.02 193,-797.06 196.96,-793.11 200.92,-793.11 200.92,-793.11 291.08,-793.11 291.08,-793.11 295.04,-793.11 299,-797.06 299,-801.02 299,-801.02 299,-808.94 299,-808.94 299,-812.9 295.04,-816.86 291.08,-816.86"/>
<text text-anchor="middle" x="246" y="-799.56" font-family="Arial" font-size="14.00" fill="#c6c5fe">router/routes.js</text>
</g>
<!-- router/index.js&#45;&gt;router/routes.js -->
<g id="edge76" class="edge">
<title>router/index.js&#45;&gt;router/routes.js</title>
<path fill="none" stroke="#757575" d="M129.16,-804.98C145.56,-804.98 164.04,-804.98 181.34,-804.98"/>
<polygon fill="#757575" stroke="#757575" points="180.99,-808.48 190.99,-804.98 180.99,-801.48 180.99,-808.48"/>
</g>
<!-- router/routes.js&#45;&gt;layouts/MainLayout.vue -->
<g id="edge77" class="edge">
<title>router/routes.js&#45;&gt;layouts/MainLayout.vue</title>
<path fill="none" stroke="#757575" d="M253.76,-792.71C282.29,-742.17 398.43,-548.64 551.25,-458.98 560.91,-453.31 571.65,-448.88 582.64,-445.4"/>
<polygon fill="#757575" stroke="#757575" points="583.57,-448.78 592.21,-442.66 581.64,-442.05 583.57,-448.78"/>
</g>
<!-- router/routes.js&#45;&gt;pages/BibliografiaPage.vue -->
<g id="edge78" class="edge">
<title>router/routes.js&#45;&gt;pages/BibliografiaPage.vue</title>
<path fill="none" stroke="#757575" d="M299.19,-798.79C306.9,-797.88 315.07,-796.91 323.37,-795.93"/>
<polygon fill="#757575" stroke="#757575" points="323.75,-799.41 333.26,-794.75 322.92,-792.45 323.75,-799.41"/>
</g>
<!-- router/routes.js&#45;&gt;pages/ConfigurationPage.vue -->
<g id="edge79" class="edge">
<title>router/routes.js&#45;&gt;pages/ConfigurationPage.vue</title>
<path fill="none" stroke="#757575" d="M267.13,-792.63C284.44,-782.7 310.43,-769.38 335,-762.98 500.89,-719.81 701.18,-716.62 821.75,-719.73"/>
<polygon fill="#757575" stroke="#757575" points="821.56,-723.22 831.65,-720.01 821.75,-716.23 821.56,-723.22"/>
</g>
<!-- router/routes.js&#45;&gt;pages/ErrorNotFound.vue -->
<g id="edge80" class="edge">
<title>router/routes.js&#45;&gt;pages/ErrorNotFound.vue</title>
<path fill="none" stroke="#757575" d="M256.1,-817.08C270.65,-835.55 301.02,-870.56 335,-888.98 338.05,-890.63 341.22,-892.15 344.48,-893.56"/>
<polygon fill="#757575" stroke="#757575" points="343.11,-896.78 353.7,-897.1 345.62,-890.25 343.11,-896.78"/>
</g>
<!-- router/routes.js&#45;&gt;pages/ErrorPage.vue -->
<g id="edge81" class="edge">
<title>router/routes.js&#45;&gt;pages/ErrorPage.vue</title>
<path fill="none" stroke="#757575" d="M269.23,-817.23C286.69,-826.44 311.85,-838.83 335,-846.98 340.81,-849.03 346.9,-850.93 353.06,-852.7"/>
<polygon fill="#757575" stroke="#757575" points="352.14,-856.07 362.71,-855.32 353.98,-849.32 352.14,-856.07"/>
</g>
<!-- router/routes.js&#45;&gt;pages/LoadingPage.vue -->
<g id="edge82" class="edge">
<title>router/routes.js&#45;&gt;pages/LoadingPage.vue</title>
<path fill="none" stroke="#757575" d="M299.19,-811.17C309.86,-812.43 321.38,-813.8 332.97,-815.17"/>
<polygon fill="#757575" stroke="#757575" points="332.22,-818.61 342.56,-816.31 333.04,-811.66 332.22,-818.61"/>
</g>
<!-- router/routes.js&#45;&gt;pages/LoginPage.vue -->
<g id="edge83" class="edge">
<title>router/routes.js&#45;&gt;pages/LoginPage.vue</title>
<path fill="none" stroke="#757575" d="M246.87,-792.81C247.01,-746.59 253.38,-579.65 335,-481.98 459.93,-332.49 713.5,-331.47 845.41,-342.56"/>
<polygon fill="#757575" stroke="#757575" points="844.85,-346.03 855.12,-343.43 845.47,-339.06 844.85,-346.03"/>
</g>
<!-- router/routes.js&#45;&gt;pages/NewBookPage.vue -->
<g id="edge84" class="edge">
<title>router/routes.js&#45;&gt;pages/NewBookPage.vue</title>
<path fill="none" stroke="#757575" d="M248,-792.97C253.78,-725.84 284.3,-397.13 335,-310.98 397.86,-204.19 434.49,-176.49 551.25,-134.98 751.53,-63.78 826.15,-73.1 1029.5,-134.98 1079.69,-150.25 1128.31,-189.14 1154.87,-213.09"/>
<polygon fill="#757575" stroke="#757575" points="1152.48,-215.64 1162.2,-219.84 1157.22,-210.49 1152.48,-215.64"/>
</g>
<!-- router/routes.js&#45;&gt;pages/RegistrationPage.vue -->
<g id="edge85" class="edge">
<title>router/routes.js&#45;&gt;pages/RegistrationPage.vue</title>
<path fill="none" stroke="#757575" d="M247.64,-792.63C251.26,-727.97 271.3,-429.02 335,-367.98 403.1,-302.74 674.64,-301.44 826.04,-306.15"/>
<polygon fill="#757575" stroke="#757575" points="825.55,-309.64 835.66,-306.47 825.78,-302.64 825.55,-309.64"/>
</g>
<!-- router/routes.js&#45;&gt;pages/TablesEditPage.vue -->
<g id="edge86" class="edge">
<title>router/routes.js&#45;&gt;pages/TablesEditPage.vue</title>
<path fill="none" stroke="#757575" d="M251.62,-817.11C262.11,-842.83 290.33,-902.78 335,-930.98 495.43,-1032.24 730.41,-1016.28 851.25,-998.98"/>
<polygon fill="#757575" stroke="#757575" points="851.7,-1002.45 861.08,-997.52 850.68,-995.52 851.7,-1002.45"/>
</g>
<!-- router/routes.js&#45;&gt;pages/Trash.vue -->
<g id="edge87" class="edge">
<title>router/routes.js&#45;&gt;pages/Trash.vue</title>
<path fill="none" stroke="#757575" d="M248.27,-816.97C254.84,-877.28 286.59,-1147.25 335,-1213.98 460.82,-1387.43 733.35,-1436.3 860.92,-1449.87"/>
<polygon fill="#757575" stroke="#757575" points="860.26,-1453.32 870.56,-1450.85 860.97,-1446.35 860.26,-1453.32"/>
</g>
<!-- router/routes.js&#45;&gt;pages/UserManagementPage.vue -->
<g id="edge88" class="edge">
<title>router/routes.js&#45;&gt;pages/UserManagementPage.vue</title>
<path fill="none" stroke="#757575" d="M249.97,-817.3C258.11,-848.47 283.64,-931.26 335,-976.98 540.17,-1159.62 875.05,-1204.98 1053.93,-1215.88"/>
<polygon fill="#757575" stroke="#757575" points="1053.53,-1219.36 1063.71,-1216.44 1053.93,-1212.37 1053.53,-1219.36"/>
</g>
<!-- utils/firebaseStorageUtils.js&#45;&gt;boot/firebase.js -->
<g id="edge98" class="edge">
<title>utils/firebaseStorageUtils.js&#45;&gt;boot/firebase.js</title>
<path fill="none" stroke="#757575" d="M1833.75,-1054.81C1851,-1025.74 1894.07,-949.5 1914.75,-879.98 1984.79,-644.5 1999.87,-343.95 2002.83,-258.55"/>
<polygon fill="#757575" stroke="#757575" points="2006.33,-258.76 2003.15,-248.65 1999.33,-258.54 2006.33,-258.76"/>
</g>
<!-- utils/trash.js -->
<g id="node46" class="node">
<title>utils/trash.js</title>
<path fill="none" stroke="#cfffac" d="M114.21,-984.86C114.21,-984.86 42.79,-984.86 42.79,-984.86 38.83,-984.86 34.88,-980.9 34.88,-976.94 34.88,-976.94 34.88,-969.02 34.88,-969.02 34.88,-965.06 38.83,-961.11 42.79,-961.11 42.79,-961.11 114.21,-961.11 114.21,-961.11 118.17,-961.11 122.12,-965.06 122.12,-969.02 122.12,-969.02 122.12,-976.94 122.12,-976.94 122.12,-980.9 118.17,-984.86 114.21,-984.86"/>
<text text-anchor="middle" x="78.5" y="-967.56" font-family="Arial" font-size="14.00" fill="#cfffac">utils/trash.js</text>
</g>
</g>
</svg>
