<svg xmlns="http://www.w3.org/2000/svg" width="256" height="256"><path fill="#1976D2" fill-opacity=".016" fill-rule="evenodd" d="M0 128.004v128.004l128.25-.254 128.25-.254.254-127.75L257.008 0H0zm.485.496c0 70.4.119 99.053.265 63.672s.146-92.98 0-128S.485 58.1.485 128.5"/><path fill="#1976D2" fill-opacity=".37" fill-rule="evenodd" d="M21 110.571v110.57l4.214 4.998 4.214 4.998 4.248-4.819 4.247-4.818.039 8.25c.035 7.596-.121 8.25-1.962 8.25-1.586 0-2-.667-2-3.222v-3.222l-2.204 2.204-2.205 2.204-2.295-2.156L25 231.651v3.175c0 2.507-.42 3.174-2 3.174-1.852 0-2 .667-2 9v9h214v-15.5c0-14.833-.086-15.5-2-15.5-1.795 0-2 .667-2 6.5s-.205 6.5-2 6.5-2-.667-2-6.5-.205-6.5-2-6.5c-1.111 0-2-.667-2-1.5 0-1.167 1.333-1.5 6-1.5h6V0H21zM27.667 1.667C27.3 2.033 27 3.047 27 3.919s44.259 45.842 98.353 99.934c72.616 72.613 98.85 98.255 100.25 97.988 1.101-.21 2.04-1.367 2.237-2.759.286-2.017-15.195-17.934-97.498-100.24C63.116 31.613 31.851 1 30.419 1c-1.147 0-2.386.3-2.752.667m157.984 36.179c-33.826 33.887-36.756 37.089-35.715 39.035.624 1.165 1.904 2.119 2.844 2.119s16.674-14.96 34.964-33.244L221 12.511v59.553c0 63.072.042 63.652 4.566 62.781 1.889-.364 1.934-1.925 1.934-66.859V1.5l-2.5-.284c-2.101-.239-8.381 5.607-39.349 36.63M27.667 61.667c-.367.366-.667 31.88-.667 70.031 0 63.297.143 69.42 1.636 69.993.9.345 2.362.169 3.25-.391 1.453-.916 1.64-7.314 1.871-64.159.142-34.727.385-63.141.54-63.141s13.764 13.504 30.242 30.01c16.479 16.505 30.77 30.267 31.759 30.582 2.136.681 4.909-1.34 4.495-3.276C100.317 129.095 31.708 61 29.945 61c-.886 0-1.912.3-2.278.667m35.589 165.862C58.787 236.438 58.44 238 60.933 238c1.137 0 2.067-.45 2.067-1s1.323-1 2.941-1 3.219.45 3.559 1c.714 1.156 4.524 1.37 4.451.25-.028-.412-1.771-4.112-3.874-8.221l-3.825-7.471zM95 230c0 7.333.167 8 2 8s2-.667 2-8-.167-8-2-8-2 .667-2 8m27.073-5.365c-4.504 5.726-1.037 13.365 6.065 13.365 5.851 0 7.862-1.416 7.862-5.535 0-3.293-.173-3.465-3.5-3.465-3.925 0-4.934 2.392-1.399 3.316 2.853.746 1.438 2.684-1.96 2.684-3.462 0-5.141-1.658-5.141-5.078 0-3.833 2.169-5.238 6.863-4.445 2.333.394 4.188.249 4.562-.356.945-1.529-2.772-3.121-7.287-3.121-3.122 0-4.445.574-6.065 2.635M158 230c0 6.28.308 8 1.434 8 .808 0 1.571-1.166 1.75-2.673.446-3.769 2.316-3.949 3.8-.365.909 2.193 1.928 3.038 3.663 3.038 2.369 0 2.381-.045.794-3.115-1.158-2.239-1.306-3.42-.526-4.2 1.451-1.451 1.381-5.989-.115-7.485-.66-.66-3.36-1.2-6-1.2H158zm34 0v8h5.5c4.222 0 5.5-.348 5.5-1.5 0-1.048-1.056-1.5-3.5-1.5s-3.5-.452-3.5-1.5q0-1.5 3-1.5t3-1.5-3-1.5c-2.333 0-3-.444-3-2 0-1.619.667-2 3.5-2 2.444 0 3.5-.452 3.5-1.5 0-1.152-1.278-1.5-5.5-1.5H192zm-30.291-4.376c-1.742 1.742-.618 3.498 2.041 3.192 1.637-.188 2.75-.923 2.75-1.816 0-1.572-3.57-2.597-4.791-1.376m-96.027 4.028c-1.27 1.27-.691 4.348.818 4.348.825 0 1.493-.562 1.485-1.25-.023-1.862-1.522-3.879-2.303-3.098"/><path fill="#1976D2" fill-opacity=".507" fill-rule="evenodd" d="M21 110.075V220.15l4.231 5.417 4.23 5.417 2.152-2.742A272 272 0 0 1 35.849 223l2.084-2.5.034 8.75c.031 8.094-.117 8.75-1.967 8.75-1.467 0-2-.667-2-2.5 0-2.737-1.721-3.39-2.638-1-.743 1.934-2.981 1.934-3.724 0-.917-2.39-2.638-1.737-2.638 1 0 1.833-.533 2.5-2 2.5-1.852 0-2 .667-2 9v9h30.277c26.878 0 30.556-.191 32.75-1.702 2.223-1.531 2.338-1.536 1.14-.048-1.238 1.537 4.057 1.658 74.25 1.7l75.583.045v-15.571c0-14.29-.144-15.543-1.75-15.237-1.404.267-1.809 1.567-2.048 6.573-.258 5.421-.554 6.24-2.25 6.24-1.723 0-1.952-.716-1.952-6.094 0-5.252-.276-6.165-2-6.616-1.1-.288-2-1.146-2-1.907 0-1.024 1.558-1.383 6-1.383h6V0h-4.035c-3.69 0-3.946.167-2.993 1.948.7 1.308.958 23.184.785 66.641-.24 60.362-.374 64.767-2.007 65.797-1.276.805-2.224.805-3.5 0-1.63-1.028-1.768-5.205-2.008-60.967l-.258-59.863-33.277 33.222C169.405 65.05 153.749 80 152.915 80c-1.956 0-3.915-1.974-3.915-3.945 0-.85 16.76-18.31 37.245-38.8L223.49 0H31.504l98.994 98.998c85.509 85.512 98.845 99.237 97.897 100.75-3.233 5.163-.865 7.345-104.145-95.98C70.213 49.708 26 4.951 26 4.309c0-.641.707-1.873 1.571-2.738C29 .143 28.773 0 25.071 0H21zm7.155-48.471L26 63.113v67.753c0 72.886-.084 71.705 5.056 70.979l2.444-.345.257-63.986.258-63.987 30.838 30.826c25.629 25.62 31.245 30.769 33.243 30.487 1.653-.234 2.51-1.091 2.744-2.745.283-2.001-5.334-8.089-33.5-36.312-18.612-18.649-34.558-34.308-35.435-34.798-1.053-.587-2.328-.377-3.75.619m36.483 162.129c-.83 1.605-2.598 5.381-3.93 8.392l-2.421 5.475h16.534l-4.027-8.05c-2.214-4.427-4.166-8.204-4.337-8.393s-.989.97-1.819 2.576m59.862-1.628c-3.171 1.814-4.5 4.03-4.5 7.504 0 4.601.855 6.264 4.072 7.928 6.143 3.177 11.928.706 11.928-5.094 0-3.268-.178-3.443-3.5-3.443-2.833 0-3.5.381-3.5 2 0 1.216.667 2 1.7 2 1.261 0 1.409.291.573 1.127-1.615 1.615-6.025.229-6.774-2.129-1.503-4.736 2.347-8.221 6.58-5.956 1.701.91 2.456.851 3.588-.28 1.245-1.245 1.241-1.594-.028-2.646-2.129-1.767-7.825-2.335-10.139-1.011M95 230c0 7.333.167 8 2 8s2-.667 2-8-.167-8-2-8-2 .667-2 8m62 0c0 7.867.042 8 2.5 8 2 0 2.5-.5 2.5-2.5 0-1.375.46-2.5 1.021-2.5.562 0 1.534 1.125 2.161 2.5.742 1.63 1.953 2.5 3.479 2.5 2.665 0 2.861-.728.895-3.321-1.185-1.563-1.151-2.223.24-4.646 1.324-2.308 1.403-3.3.434-5.428-1.088-2.387-1.692-2.605-7.209-2.605H157zm35 0v8h5.5c4.222 0 5.5-.348 5.5-1.5 0-.993-.993-1.5-2.941-1.5-1.618 0-3.219-.45-3.559-1-.361-.583.656-1 2.441-1 2.392 0 3.059-.436 3.059-2 0-1.566-.667-2-3.073-2-4.415 0-3.679-3.377.831-3.813 2.006-.194 3.242-.861 3.242-1.75 0-1.075-1.386-1.437-5.5-1.437H192zm-30-3c0 1.506.522 2.046 1.75 1.81.963-.186 1.75-1 1.75-1.81s-.787-1.624-1.75-1.81c-1.228-.236-1.75.304-1.75 1.81m-96.475 3.96c-.848 1.372-.097 2.402 1.38 1.894.606-.208.683-.914.188-1.711-.625-1.006-1.03-1.053-1.568-.183M80.2 249.2c-1.39 1.39-1.592 4.44-.344 5.211.47.291.644-.578.385-1.931-.362-1.891.076-2.678 1.894-3.406 1.375-.551 1.716-.974.815-1.011-.852-.034-2.09.477-2.75 1.137m15.665-.126c1.818.728 2.256 1.515 1.894 3.406-.259 1.353-.085 2.222.385 1.931 2.378-1.47-.061-6.472-3.094-6.348-.901.037-.56.46.815 1.011m29.948-.391c.721.289 1.584.253 1.916-.079s-.258-.568-1.312-.525c-1.165.048-1.402.285-.604.604m9.842.067c-.255.412.8.75 2.345.75s2.6-.338 2.345-.75-1.31-.75-2.345-.75-2.091.338-2.345.75m12.005.019c.638.405 1.358 2.086 1.6 3.734l.44 2.997.15-3.167c.083-1.741.713-3.393 1.4-3.671.688-.277-.1-.533-1.75-.568s-2.478.269-1.84.675m10.929.087c-.291.47.578.644 1.931.385 1.891-.362 2.678.076 3.406 1.894.551 1.375.974 1.716 1.011.815.124-3.033-4.878-5.472-6.348-3.094m14.225.199c2.506 1.005 2.116 2.896-.623 3.024-1.094.051-1.238.261-.407.594.706.284 1.949-.036 2.762-.711 1.77-1.469.2-4.001-2.418-3.899-1.072.042-.837.381.686.992m-38.799 2.504c.023 1.382 1.799 3.961 2.349 3.41.26-.259-.166-1.345-.946-2.412s-1.411-1.516-1.403-.998m23 0c.023 1.382 1.799 3.961 2.349 3.41.26-.259-.166-1.345-.946-2.412s-1.411-1.516-1.403-.998"/><path fill="#1976D2" fill-opacity=".974" fill-rule="evenodd" d="M21 110.417c0 60.729.341 110.566.757 110.75.417.183 2.296 2.297 4.175 4.697l3.417 4.364 4.287-4.864 4.287-4.864.039 9.32c.037 9.102-.014 9.312-2.212 9-1.474-.21-2.364-1.125-2.58-2.652-.307-2.168-.456-2.219-2.107-.725-1.633 1.478-1.887 1.474-3.152-.05-1.255-1.512-1.426-1.448-1.935.724-.344 1.469-1.406 2.506-2.767 2.703-2.079.3-2.209.816-2.209 8.75V256h30.122c26.153 0 29.965-.19 28.924-1.445-.66-.795-1.052-2.482-.873-3.75.256-1.805.96-2.305 3.244-2.305 1.705 0 3.122.623 3.412 1.5.431 1.303.271 1.314-1.217.086-1.483-1.225-1.922-1.205-3.281.154-2.07 2.07-.725 4.068 2.344 3.482 1.776-.34 2.298-.093 1.914.906-.392 1.021.491 1.372 3.451 1.372 3.729 0 3.899-.125 2.726-2.003-1.756-2.811.122-5.497 3.843-5.497 2.257 0 2.963.505 3.218 2.305.179 1.268-.213 2.955-.873 3.75-1.01 1.218-.586 1.445 2.7 1.445h3.899l-.382-4c-.236-2.484.038-4 .724-4 .608 0 1.105 1.35 1.105 3q0 3 1.5 3c.825 0 1.5.45 1.5 1s1.249 1 2.776 1c2.636 0 2.758-.202 2.395-4-.236-2.484.038-4 .724-4 .608 0 1.105 1.35 1.105 3q0 3 1.5 3c.825 0 1.5.45 1.5 1s1.249 1 2.776 1c2.636 0 2.758-.202 2.395-4-.366-3.843-.269-3.995 2.474-3.884 1.689.069 2.14.303 1.105.573-2.17.567-2.314 2.311-.191 2.311.857 0 1.276.457.931 1.016-.346.559-1.047.758-1.559.441-.512-.316-.931-.098-.931.484s.675 1.059 1.5 1.059 1.5.45 1.5 1 1.579 1 3.508 1c3.261 0 3.42-.142 2.258-2.003-2.434-3.898 3.262-8.078 6.194-4.545 1.461 1.76.026 2.134-1.673.435-1.498-1.498-3.287-.248-3.287 2.297 0 1.78.432 1.98 3.122 1.442 2.695-.539 2.952-.42 1.877.875s-.616 1.499 3.379 1.499c4.597 0 4.622-.019 4.622-3.427 0-2.422-.513-3.56-1.75-3.884-.963-.251-.175-.474 1.75-.494s2.938.19 2.25.467c-.687.278-1.25 2.042-1.25 3.921 0 3.384.044 3.417 4.508 3.417 4.261 0 4.44-.11 3.258-2.003-1.63-2.611.068-5.497 3.234-5.497s4.864 2.886 3.234 5.497c-1.162 1.861-1.003 2.003 2.258 2.003 3.436 0 3.508-.084 3.508-4.066 0-3.847.149-4.05 2.75-3.75 2.146.246 2.774.865 2.858 2.816.06 1.375.173 3.063.25 3.75.11.969 6.784 1.25 29.642 1.25H235v-15c0-12.448-.247-15-1.452-15-1.083 0-1.528 1.589-1.75 6.25-.282 5.921-.43 6.25-2.798 6.25-2.363 0-2.516-.336-2.795-6.145-.25-5.213-.605-6.226-2.337-6.679-1.31-.343-1.918-1.187-1.695-2.355.284-1.489 1.484-1.875 6.587-2.119l6.24-.297V0h-4.2c-3.267 0-3.933.267-3 1.2.909.909 1.2 17.148 1.2 66.965 0 64.741-.031 65.781-2 66.835-1.421.76-2.579.76-4 0-1.966-1.052-2-2.094-2-61.28V13.511l-33.256 33.245C169.454 65.04 153.759 80 152.867 80c-2.393 0-4.172-2.652-3.514-5.237.318-1.245 16.92-18.575 36.894-38.513L222.564 0H32.476l98.262 98.243C202.123 169.614 229 197.094 229 198.708c0 1.983-2.513 4.292-4.672 4.292C222.788 203 26 5.502 26 3.957c0-.856.54-2.097 1.2-2.757.933-.933.378-1.2-2.5-1.2H21zm6.75-49.337c-1.64.955-1.75 5.354-1.75 69.898 0 61.284.173 69.052 1.571 70.451 1.86 1.859 1.993 1.875 4.495.536 1.881-1.007 1.934-2.772 1.934-64 0-34.631.335-62.965.744-62.965s14.523 13.774 31.364 30.608c27.448 27.437 30.829 30.496 32.638 29.528 5.028-2.691 4.611-3.212-31.94-39.816-19.397-19.426-35.727-35.306-36.287-35.29-.56.017-1.807.489-2.769 1.05m33.954 168.17c-2.041 4.537-3.71 8.588-3.708 9s1.129.75 2.504.75 2.5-.45 2.5-1 1.323-1 2.941-1 3.219.45 3.559 1c.658 1.065 5.5 1.414 5.5.397C75 236.881 67.033 221 66.272 221c-.471 0-2.527 3.713-4.568 8.25m32.745-6.977c-.299.778-.409 4.747-.246 8.821.287 7.154.382 7.406 2.797 7.406 2.471 0 2.5-.1 2.5-8.5 0-8.058-.117-8.517-2.254-8.82-1.267-.18-2.493.3-2.797 1.093m27.879 1.121c-2.224 1.913-2.783 3.239-2.783 6.606 0 5.412 3.703 9 9.288 9 5.321 0 8.167-2.305 8.167-6.614 0-3.491-.012-3.5-4.172-3.193-4.702.346-6.181 2.371-2.678 3.667l2.317.857-2.421.769c-3.229 1.024-6.35-2.502-5.121-5.785.64-1.711 1.687-2.23 4.699-2.329 6.086-.201 6.376-.285 6.376-1.837 0-4.008-9.424-4.795-13.672-1.141M157 230c0 8.933.019 9 2.5 9 2.111 0 2.5-.467 2.5-3 0-1.65.395-3 .879-3 .483 0 1.438 1.35 2.121 3 .851 2.055 1.94 3 3.455 3 3.207 0 3.651-.909 1.814-3.713-1.299-1.981-1.389-2.865-.448-4.372 3.412-5.463-.199-9.915-8.044-9.915H157zm34.441-7.707c-.294.767-.401 4.727-.238 8.801l.297 7.406h6c5.333 0 6-.222 6-2 0-1.501-.873-2.154-3.5-2.618l-3.5-.619 3.25-.131c2.539-.103 3.25-.569 3.25-2.132 0-1.556-.667-2-3-2-4.231 0-4.013-2.776.25-3.187 2.479-.239 3.25-.788 3.25-2.313 0-1.734-.767-2.04-5.762-2.3-4.217-.22-5.906.073-6.297 1.093M162 227c0 .55.9 1 2 1s2-.45 2-1-.9-1-2-1-2 .45-2 1m-96.362 4.5c-.316.825-.139 1.5.393 1.5.533 0 .969-.675.969-1.5s-.177-1.5-.393-1.5-.652.675-.969 1.5m28.029 18.167c-1.465 1.465-.622 4.333 1.274 4.333 2.553 0 3.535-1.721 2.023-3.544-1.321-1.591-2.269-1.818-3.297-.789m66 0c-1.465 1.465-.622 4.333 1.274 4.333 2.553 0 3.535-1.721 2.023-3.544-1.321-1.591-2.269-1.818-3.297-.789M172 250.5c0 .825.45 1.5 1 1.5s1-.675 1-1.5-.45-1.5-1-1.5-1 .675-1 1.5m-.362 4c-.398 1.039.068 1.5 1.516 1.5 1.745 0 1.885-.248.846-1.5-.685-.825-1.367-1.5-1.515-1.5-.149 0-.53.675-.847 1.5"/></svg>