<svg xmlns="http://www.w3.org/2000/svg" xmlns:xlink="http://www.w3.org/1999/xlink" width="512" zoomAndPan="magnify" viewBox="0 0 384 383.999986" height="512" preserveAspectRatio="xMidYMid meet" version="1.0"><defs><g/><clipPath id="921685937c"><path d="M 121 101.480469 L 262.714844 101.480469 L 262.714844 243.230469 L 121 243.230469 Z M 121 101.480469 " clip-rule="nonzero"/></clipPath></defs><rect x="-38.4" width="460.8" fill="#ffffff" y="-38.399999" height="460.799983" fill-opacity="1"/><rect x="-38.4" width="460.8" fill="#000000" y="-38.399999" height="460.799983" fill-opacity="1"/><g clip-path="url(#921685937c)"><path fill="#ffffff" d="M 260.035156 196.25 C 258.546875 196.25 257.339844 195.042969 257.339844 193.554688 L 257.339844 110.945312 L 211.628906 156.660156 C 210.574219 157.710938 208.871094 157.710938 207.816406 156.660156 C 206.765625 155.605469 206.765625 153.902344 207.816406 152.847656 L 258.128906 102.539062 C 258.898438 101.765625 260.058594 101.535156 261.066406 101.953125 C 262.070312 102.371094 262.726562 103.351562 262.726562 104.441406 L 262.726562 193.554688 C 262.726562 195.042969 261.523438 196.25 260.035156 196.25 Z M 123.972656 243.195312 C 122.488281 243.195312 121.28125 241.988281 121.28125 240.503906 L 121.28125 146.609375 C 121.28125 145.519531 121.9375 144.539062 122.945312 144.121094 C 123.949219 143.703125 125.109375 143.933594 125.878906 144.707031 L 172.824219 191.652344 C 173.875 192.703125 173.875 194.410156 172.824219 195.460938 C 171.773438 196.511719 170.066406 196.511719 169.015625 195.460938 L 126.667969 153.109375 L 126.667969 240.503906 C 126.667969 241.988281 125.460938 243.195312 123.972656 243.195312 Z M 260.035156 243.195312 C 259.34375 243.195312 258.65625 242.933594 258.128906 242.40625 L 122.070312 106.347656 C 121.019531 105.296875 121.019531 103.589844 122.070312 102.539062 C 123.121094 101.484375 124.828125 101.484375 125.878906 102.539062 L 261.9375 238.597656 C 262.988281 239.648438 262.988281 241.355469 261.9375 242.40625 C 261.410156 242.933594 260.722656 243.195312 260.035156 243.195312 " fill-opacity="1" fill-rule="nonzero"/></g><g fill="#fffbfa" fill-opacity="1"><g transform="translate(116.367803, 268.33423)"><g><path d="M 3.921875 0 C 4.128906 0 4.234375 -0.105469 4.234375 -0.3125 L 4.234375 -4.535156 L 6.886719 -1.441406 C 7.03125 -1.269531 7.183594 -1.269531 7.324219 -1.441406 L 10.011719 -4.566406 L 10.011719 -0.3125 C 10.011719 -0.105469 10.117188 0 10.324219 0 L 12.753906 0 C 12.960938 0 13.066406 -0.105469 13.066406 -0.3125 L 13.066406 -11.496094 C 13.066406 -12.078125 12.660156 -12.21875 12.300781 -11.765625 L 7.109375 -5.269531 L 1.945312 -11.765625 C 1.570312 -12.238281 1.179688 -12.078125 1.179688 -11.496094 L 1.179688 -0.3125 C 1.179688 -0.105469 1.285156 0 1.492188 0 Z M 3.921875 0 "/></g></g></g><g fill="#fffbfa" fill-opacity="1"><g transform="translate(143.165634, 268.33423)"><g><path d="M 6.480469 -11.765625 C 6.242188 -12.246094 5.867188 -12.246094 5.628906 -11.765625 L 0.238281 -0.375 C 0.136719 -0.152344 0.238281 0 0.46875 0 L 3.230469 0 C 3.402344 0 3.53125 -0.09375 3.59375 -0.253906 L 3.976562 -1.242188 L 8.132812 -1.242188 L 8.515625 -0.253906 C 8.578125 -0.09375 8.707031 0 8.878906 0 L 11.640625 0 C 11.871094 0 11.972656 -0.152344 11.871094 -0.375 Z M 6.058594 -6.550781 L 7.214844 -3.59375 L 4.894531 -3.59375 Z M 6.058594 -6.550781 "/></g></g></g><g fill="#fffbfa" fill-opacity="1"><g transform="translate(167.842216, 268.33423)"><g><path d="M 3.984375 0 C 4.191406 0 4.296875 -0.105469 4.296875 -0.3125 L 4.296875 -11.449219 C 4.296875 -11.65625 4.191406 -11.765625 3.984375 -11.765625 L 1.476562 -11.765625 C 1.269531 -11.765625 1.164062 -11.65625 1.164062 -11.449219 L 1.164062 -0.3125 C 1.164062 -0.105469 1.269531 0 1.476562 0 Z M 3.984375 0 "/></g></g></g><g fill="#fffbfa" fill-opacity="1"><g transform="translate(185.856389, 268.33423)"><g><path d="M 7.0625 0.3125 C 9.351562 0.3125 11.199219 -0.535156 12.285156 -2.023438 C 12.363281 -2.113281 12.394531 -2.230469 12.394531 -2.367188 L 12.394531 -6.242188 C 12.394531 -6.449219 12.285156 -6.554688 12.078125 -6.554688 L 7.46875 -6.554688 C 7.261719 -6.554688 7.152344 -6.449219 7.152344 -6.242188 L 7.152344 -4.359375 C 7.152344 -4.160156 7.261719 -4.042969 7.46875 -4.042969 L 9.535156 -4.042969 L 9.535156 -3.402344 C 8.96875 -2.742188 8.113281 -2.351562 7.0625 -2.351562 C 5.117188 -2.351562 3.828125 -3.699219 3.828125 -5.882812 C 3.828125 -7.964844 5.117188 -9.253906 7.0625 -9.253906 C 8.171875 -9.253906 9.070312 -8.832031 9.652344 -8.125 C 9.773438 -7.964844 9.910156 -7.933594 10.070312 -8.050781 L 12.140625 -9.429688 C 12.316406 -9.550781 12.347656 -9.695312 12.21875 -9.851562 C 11.089844 -11.242188 9.285156 -12.078125 7.0625 -12.078125 C 3.230469 -12.078125 0.6875 -9.667969 0.6875 -5.882812 C 0.6875 -2.097656 3.230469 0.3125 7.0625 0.3125 Z M 7.0625 0.3125 "/></g></g></g><g fill="#fffbfa" fill-opacity="1"><g transform="translate(211.681666, 268.33423)"><g><path d="M 8.769531 -4.417969 C 9.925781 -5.023438 10.585938 -6.28125 10.585938 -7.980469 C 10.585938 -9.996094 9.679688 -11.765625 6.363281 -11.765625 L 1.476562 -11.765625 C 1.269531 -11.765625 1.164062 -11.65625 1.164062 -11.449219 L 1.164062 -0.3125 C 1.164062 -0.105469 1.269531 0 1.476562 0 L 4 0 C 4.203125 0 4.3125 -0.105469 4.3125 -0.3125 L 4.3125 -4.011719 L 5.636719 -4.011719 L 7.527344 -0.238281 C 7.605469 -0.078125 7.722656 0 7.890625 0 L 10.746094 0 C 10.984375 0 11.074219 -0.152344 10.96875 -0.375 Z M 5.820312 -9.097656 C 6.449219 -9.097656 7.453125 -9.097656 7.453125 -7.949219 C 7.453125 -6.679688 6.257812 -6.679688 5.820312 -6.679688 L 4.3125 -6.679688 L 4.3125 -9.097656 Z M 5.820312 -9.097656 "/></g></g></g><g fill="#fffbfa" fill-opacity="1"><g transform="translate(235.875801, 268.33423)"><g><path d="M 8.800781 0 C 9.007812 0 9.113281 -0.105469 9.113281 -0.3125 L 9.113281 -2.351562 C 9.113281 -2.558594 9.007812 -2.664062 8.800781 -2.664062 L 4.296875 -2.664062 L 4.296875 -4.042969 L 8.1875 -4.042969 C 8.394531 -4.042969 8.503906 -4.160156 8.503906 -4.359375 L 8.503906 -6.242188 C 8.503906 -6.449219 8.394531 -6.554688 8.1875 -6.554688 L 4.296875 -6.554688 L 4.296875 -9.097656 L 8.800781 -9.097656 C 9.007812 -9.097656 9.113281 -9.207031 9.113281 -9.414062 L 9.113281 -11.449219 C 9.113281 -11.65625 9.007812 -11.765625 8.800781 -11.765625 L 1.476562 -11.765625 C 1.269531 -11.765625 1.164062 -11.65625 1.164062 -11.449219 L 1.164062 -0.3125 C 1.164062 -0.105469 1.269531 0 1.476562 0 Z M 8.800781 0 "/></g></g></g><g fill="#fffbfa" fill-opacity="1"><g transform="translate(258.438796, 268.33423)"><g><path d="M 5.835938 0 C 6.035156 0 6.152344 -0.105469 6.152344 -0.3125 L 6.152344 -9.097656 L 8.515625 -9.097656 C 8.722656 -9.097656 8.832031 -9.207031 8.832031 -9.414062 L 8.832031 -11.449219 C 8.832031 -11.65625 8.722656 -11.765625 8.515625 -11.765625 L 0.628906 -11.765625 C 0.421875 -11.765625 0.3125 -11.65625 0.3125 -11.449219 L 0.3125 -9.414062 C 0.3125 -9.207031 0.421875 -9.097656 0.628906 -9.097656 L 2.996094 -9.097656 L 2.996094 -0.3125 C 2.996094 -0.105469 3.109375 0 3.308594 0 Z M 5.835938 0 "/></g></g></g><g fill="#fffbfa" fill-opacity="1"><g transform="translate(157.648881, 280.606332)"><g><path d="M 3.003906 0.09375 C 4.1875 0.09375 5.152344 -0.601562 5.460938 -1.683594 L 5.003906 -1.683594 C 4.722656 -0.851562 3.949219 -0.34375 3.011719 -0.34375 C 1.785156 -0.34375 0.902344 -1.226562 0.902344 -2.507812 C 0.902344 -3.792969 1.785156 -4.671875 3.011719 -4.671875 C 3.929688 -4.671875 4.671875 -4.1875 4.960938 -3.390625 L 5.417969 -3.390625 C 5.089844 -4.445312 4.148438 -5.109375 3.003906 -5.109375 C 1.527344 -5.109375 0.457031 -4.035156 0.457031 -2.507812 C 0.457031 -0.980469 1.527344 0.09375 3.003906 0.09375 Z M 3.003906 0.09375 "/></g></g></g><g fill="#fffbfa" fill-opacity="1"><g transform="translate(166.408412, 280.606332)"><g><path d="M 3.046875 0.09375 C 4.582031 0.09375 5.632812 -0.976562 5.632812 -2.507812 C 5.632812 -4.042969 4.582031 -5.109375 3.046875 -5.109375 C 1.519531 -5.109375 0.457031 -4.042969 0.457031 -2.507812 C 0.457031 -0.976562 1.519531 0.09375 3.046875 0.09375 Z M 0.902344 -2.507812 C 0.902344 -3.800781 1.777344 -4.671875 3.046875 -4.671875 C 4.324219 -4.671875 5.195312 -3.800781 5.195312 -2.507812 C 5.195312 -1.226562 4.324219 -0.34375 3.046875 -0.34375 C 1.777344 -0.34375 0.902344 -1.226562 0.902344 -2.507812 Z M 0.902344 -2.507812 "/></g></g></g><g fill="#fffbfa" fill-opacity="1"><g transform="translate(175.368651, 280.606332)"><g><path d="M 0.808594 0 L 3.792969 0 L 3.792969 -0.414062 L 1.246094 -0.414062 L 1.246094 -5.019531 L 0.808594 -5.019531 Z M 0.808594 0 "/></g></g></g><g fill="#fffbfa" fill-opacity="1"><g transform="translate(182.271612, 280.606332)"><g><path d="M 0.808594 0 L 3.792969 0 L 3.792969 -0.414062 L 1.246094 -0.414062 L 1.246094 -5.019531 L 0.808594 -5.019531 Z M 0.808594 0 "/></g></g></g><g fill="#fffbfa" fill-opacity="1"><g transform="translate(189.174571, 280.606332)"><g><path d="M 0.808594 0 L 3.84375 0 L 3.84375 -0.410156 L 1.246094 -0.410156 L 1.246094 -2.359375 L 3.578125 -2.359375 L 3.578125 -2.757812 L 1.246094 -2.757812 L 1.246094 -4.609375 L 3.761719 -4.609375 L 3.761719 -5.019531 L 0.808594 -5.019531 Z M 0.808594 0 "/></g></g></g><g fill="#fffbfa" fill-opacity="1"><g transform="translate(196.407267, 280.606332)"><g><path d="M 3.003906 0.09375 C 4.1875 0.09375 5.152344 -0.601562 5.460938 -1.683594 L 5.003906 -1.683594 C 4.722656 -0.851562 3.949219 -0.34375 3.011719 -0.34375 C 1.785156 -0.34375 0.902344 -1.226562 0.902344 -2.507812 C 0.902344 -3.792969 1.785156 -4.671875 3.011719 -4.671875 C 3.929688 -4.671875 4.671875 -4.1875 4.960938 -3.390625 L 5.417969 -3.390625 C 5.089844 -4.445312 4.148438 -5.109375 3.003906 -5.109375 C 1.527344 -5.109375 0.457031 -4.035156 0.457031 -2.507812 C 0.457031 -0.980469 1.527344 0.09375 3.003906 0.09375 Z M 3.003906 0.09375 "/></g></g></g><g fill="#fffbfa" fill-opacity="1"><g transform="translate(205.1668, 280.606332)"><g><path d="M 2 0 L 2.429688 0 L 2.429688 -4.601562 L 4.164062 -4.601562 L 4.164062 -5.019531 L 0.273438 -5.019531 L 0.273438 -4.601562 L 2 -4.601562 Z M 2 0 "/></g></g></g><g fill="#fffbfa" fill-opacity="1"><g transform="translate(212.471186, 280.606332)"><g><path d="M 3.046875 0.09375 C 4.582031 0.09375 5.632812 -0.976562 5.632812 -2.507812 C 5.632812 -4.042969 4.582031 -5.109375 3.046875 -5.109375 C 1.519531 -5.109375 0.457031 -4.042969 0.457031 -2.507812 C 0.457031 -0.976562 1.519531 0.09375 3.046875 0.09375 Z M 0.902344 -2.507812 C 0.902344 -3.800781 1.777344 -4.671875 3.046875 -4.671875 C 4.324219 -4.671875 5.195312 -3.800781 5.195312 -2.507812 C 5.195312 -1.226562 4.324219 -0.34375 3.046875 -0.34375 C 1.777344 -0.34375 0.902344 -1.226562 0.902344 -2.507812 Z M 0.902344 -2.507812 "/></g></g></g><g fill="#fffbfa" fill-opacity="1"><g transform="translate(221.431426, 280.606332)"><g><path d="M 0.808594 0 L 1.246094 0 L 1.246094 -1.886719 L 2.542969 -1.886719 L 3.890625 0 L 4.414062 0 L 3.054688 -1.921875 C 3.84375 -2.058594 4.335938 -2.625 4.335938 -3.453125 C 4.335938 -4.410156 3.675781 -5.019531 2.667969 -5.019531 L 0.808594 -5.019531 Z M 1.246094 -2.300781 L 1.246094 -4.601562 L 2.625 -4.601562 C 3.417969 -4.601562 3.890625 -4.164062 3.890625 -3.453125 C 3.890625 -2.738281 3.417969 -2.300781 2.625 -2.300781 Z M 1.246094 -2.300781 "/></g></g></g></svg>