<svg xmlns="http://www.w3.org/2000/svg" xmlns:xlink="http://www.w3.org/1999/xlink" width="512" zoomAndPan="magnify" viewBox="0 0 384 383.999986" height="512" preserveAspectRatio="xMidYMid meet" version="1.0"><defs><g/><clipPath id="efd67dbd18"><path d="M 54 15.402344 L 330 15.402344 L 330 292 L 54 292 Z M 54 15.402344 " clip-rule="nonzero"/></clipPath></defs><rect x="-38.4" width="460.8" fill="#ffffff" y="-38.399999" height="460.799983" fill-opacity="1"/><rect x="-38.4" width="460.8" fill="#000000" y="-38.399999" height="460.799983" fill-opacity="1"/><g clip-path="url(#efd67dbd18)"><path fill="#ffffff" d="M 324.734375 200.292969 C 321.835938 200.292969 319.480469 197.9375 319.480469 195.039062 L 319.480469 33.867188 L 230.292969 123.050781 C 228.242188 125.101562 224.914062 125.101562 222.863281 123.050781 C 220.8125 121 220.8125 117.675781 222.863281 115.621094 L 321.019531 17.464844 C 322.523438 15.960938 324.78125 15.511719 326.746094 16.324219 C 328.707031 17.140625 329.988281 19.054688 329.988281 21.179688 L 329.988281 195.039062 C 329.988281 197.9375 327.636719 200.292969 324.734375 200.292969 Z M 59.285156 291.882812 C 56.386719 291.882812 54.03125 289.53125 54.03125 286.628906 L 54.03125 103.449219 C 54.03125 101.324219 55.3125 99.40625 57.277344 98.59375 C 59.242188 97.78125 61.5 98.230469 63.003906 99.730469 L 154.59375 191.324219 C 156.644531 193.375 156.644531 196.703125 154.59375 198.753906 C 152.539062 200.804688 149.214844 200.804688 147.160156 198.753906 L 64.542969 116.132812 L 64.542969 286.628906 C 64.542969 289.53125 62.1875 291.882812 59.285156 291.882812 Z M 324.734375 291.882812 C 323.390625 291.882812 322.046875 291.367188 321.019531 290.34375 L 55.570312 24.894531 C 53.519531 22.84375 53.519531 19.515625 55.570312 17.464844 C 57.625 15.414062 60.949219 15.414062 63.003906 17.464844 L 328.449219 282.914062 C 330.503906 284.964844 330.503906 288.292969 328.449219 290.34375 C 327.421875 291.367188 326.078125 291.882812 324.734375 291.882812 " fill-opacity="1" fill-rule="nonzero"/></g><g fill="#fffbfa" fill-opacity="1"><g transform="translate(44.444637, 340.926655)"><g><path d="M 7.652344 0 C 8.054688 0 8.261719 -0.210938 8.261719 -0.613281 L 8.261719 -8.847656 L 13.433594 -2.808594 C 13.71875 -2.480469 14.015625 -2.480469 14.285156 -2.808594 L 19.53125 -8.90625 L 19.53125 -0.613281 C 19.53125 -0.210938 19.738281 0 20.144531 0 L 24.878906 0 C 25.285156 0 25.492188 -0.210938 25.492188 -0.613281 L 25.492188 -22.429688 C 25.492188 -23.566406 24.703125 -23.835938 24 -22.953125 L 13.867188 -10.28125 L 3.796875 -22.953125 C 3.0625 -23.878906 2.300781 -23.566406 2.300781 -22.429688 L 2.300781 -0.613281 C 2.300781 -0.210938 2.511719 0 2.914062 0 Z M 7.652344 0 "/></g></g></g><g fill="#fffbfa" fill-opacity="1"><g transform="translate(96.726134, 340.926655)"><g><path d="M 12.640625 -22.953125 C 12.179688 -23.894531 11.445312 -23.894531 10.984375 -22.953125 L 0.464844 -0.730469 C 0.269531 -0.300781 0.464844 0 0.910156 0 L 6.304688 0 C 6.636719 0 6.890625 -0.179688 7.007812 -0.492188 L 7.753906 -2.421875 L 15.871094 -2.421875 L 16.617188 -0.492188 C 16.738281 -0.179688 16.992188 0 17.320312 0 L 22.714844 0 C 23.164062 0 23.355469 -0.300781 23.164062 -0.730469 Z M 11.820312 -12.777344 L 14.078125 -7.007812 L 9.546875 -7.007812 Z M 11.820312 -12.777344 "/></g></g></g><g fill="#fffbfa" fill-opacity="1"><g transform="translate(144.869158, 340.926655)"><g><path d="M 7.769531 0 C 8.175781 0 8.382812 -0.210938 8.382812 -0.613281 L 8.382812 -22.339844 C 8.382812 -22.742188 8.175781 -22.953125 7.769531 -22.953125 L 2.882812 -22.953125 C 2.480469 -22.953125 2.269531 -22.742188 2.269531 -22.339844 L 2.269531 -0.613281 C 2.269531 -0.210938 2.480469 0 2.882812 0 Z M 7.769531 0 "/></g></g></g><g fill="#fffbfa" fill-opacity="1"><g transform="translate(180.014088, 340.926655)"><g><path d="M 13.777344 0.613281 C 18.246094 0.613281 21.847656 -1.046875 23.96875 -3.945312 C 24.117188 -4.125 24.179688 -4.347656 24.179688 -4.617188 L 24.179688 -12.179688 C 24.179688 -12.582031 23.96875 -12.792969 23.566406 -12.792969 L 14.570312 -12.792969 C 14.167969 -12.792969 13.957031 -12.582031 13.957031 -12.179688 L 13.957031 -8.503906 C 13.957031 -8.113281 14.167969 -7.890625 14.570312 -7.890625 L 18.605469 -7.890625 L 18.605469 -6.636719 C 17.5 -5.351562 15.824219 -4.585938 13.777344 -4.585938 C 9.980469 -4.585938 7.472656 -7.21875 7.472656 -11.476562 C 7.472656 -15.542969 9.980469 -18.050781 13.777344 -18.050781 C 15.945312 -18.050781 17.691406 -17.230469 18.828125 -15.855469 C 19.066406 -15.542969 19.335938 -15.480469 19.652344 -15.707031 L 23.683594 -18.394531 C 24.027344 -18.632812 24.089844 -18.917969 23.835938 -19.21875 C 21.636719 -21.9375 18.109375 -23.566406 13.777344 -23.566406 C 6.304688 -23.566406 1.34375 -18.859375 1.34375 -11.476562 C 1.34375 -4.09375 6.304688 0.613281 13.777344 0.613281 Z M 13.777344 0.613281 "/></g></g></g><g fill="#fffbfa" fill-opacity="1"><g transform="translate(230.398169, 340.926655)"><g><path d="M 17.109375 -8.621094 C 19.367188 -9.804688 20.652344 -12.253906 20.652344 -15.570312 C 20.652344 -19.5 18.886719 -22.953125 12.417969 -22.953125 L 2.882812 -22.953125 C 2.480469 -22.953125 2.269531 -22.742188 2.269531 -22.339844 L 2.269531 -0.613281 C 2.269531 -0.210938 2.480469 0 2.882812 0 L 7.800781 0 C 8.203125 0 8.414062 -0.210938 8.414062 -0.613281 L 8.414062 -7.832031 L 11 -7.832031 L 14.6875 -0.464844 C 14.839844 -0.148438 15.0625 0 15.390625 0 L 20.964844 0 C 21.429688 0 21.609375 -0.300781 21.398438 -0.730469 Z M 11.355469 -17.753906 C 12.582031 -17.753906 14.539062 -17.753906 14.539062 -15.511719 C 14.539062 -13.03125 12.207031 -13.03125 11.355469 -13.03125 L 8.414062 -13.03125 L 8.414062 -17.753906 Z M 11.355469 -17.753906 "/></g></g></g><g fill="#fffbfa" fill-opacity="1"><g transform="translate(277.59996, 340.926655)"><g><path d="M 17.167969 0 C 17.574219 0 17.78125 -0.210938 17.78125 -0.613281 L 17.78125 -4.585938 C 17.78125 -4.992188 17.574219 -5.199219 17.167969 -5.199219 L 8.382812 -5.199219 L 8.382812 -7.890625 L 15.972656 -7.890625 C 16.378906 -7.890625 16.585938 -8.113281 16.585938 -8.503906 L 16.585938 -12.179688 C 16.585938 -12.582031 16.378906 -12.792969 15.972656 -12.792969 L 8.382812 -12.792969 L 8.382812 -17.753906 L 17.167969 -17.753906 C 17.574219 -17.753906 17.78125 -17.960938 17.78125 -18.367188 L 17.78125 -22.339844 C 17.78125 -22.742188 17.574219 -22.953125 17.167969 -22.953125 L 2.882812 -22.953125 C 2.480469 -22.953125 2.269531 -22.742188 2.269531 -22.339844 L 2.269531 -0.613281 C 2.269531 -0.210938 2.480469 0 2.882812 0 Z M 17.167969 0 "/></g></g></g><g fill="#fffbfa" fill-opacity="1"><g transform="translate(321.61946, 340.926655)"><g><path d="M 11.386719 0 C 11.773438 0 12 -0.210938 12 -0.613281 L 12 -17.753906 L 16.617188 -17.753906 C 17.019531 -17.753906 17.230469 -17.960938 17.230469 -18.367188 L 17.230469 -22.339844 C 17.230469 -22.742188 17.019531 -22.953125 16.617188 -22.953125 L 1.226562 -22.953125 C 0.820312 -22.953125 0.613281 -22.742188 0.613281 -22.339844 L 0.613281 -18.367188 C 0.613281 -17.960938 0.820312 -17.753906 1.226562 -17.753906 L 5.84375 -17.753906 L 5.84375 -0.613281 C 5.84375 -0.210938 6.066406 0 6.457031 0 Z M 11.386719 0 "/></g></g></g><g fill="#fffbfa" fill-opacity="1"><g transform="translate(124.982326, 364.869065)"><g><path d="M 5.859375 0.183594 C 8.167969 0.183594 10.054688 -1.175781 10.65625 -3.285156 L 9.761719 -3.285156 C 9.214844 -1.664062 7.707031 -0.671875 5.875 -0.671875 C 3.480469 -0.671875 1.761719 -2.390625 1.761719 -4.894531 C 1.761719 -7.398438 3.480469 -9.117188 5.875 -9.117188 C 7.664062 -9.117188 9.117188 -8.167969 9.675781 -6.613281 L 10.574219 -6.613281 C 9.929688 -8.671875 8.097656 -9.972656 5.859375 -9.972656 C 2.980469 -9.972656 0.894531 -7.875 0.894531 -4.894531 C 0.894531 -1.914062 2.980469 0.183594 5.859375 0.183594 Z M 5.859375 0.183594 "/></g></g></g><g fill="#fffbfa" fill-opacity="1"><g transform="translate(142.071819, 364.869065)"><g><path d="M 5.945312 0.183594 C 8.9375 0.183594 10.992188 -1.902344 10.992188 -4.894531 C 10.992188 -7.886719 8.9375 -9.972656 5.945312 -9.972656 C 2.964844 -9.972656 0.894531 -7.886719 0.894531 -4.894531 C 0.894531 -1.902344 2.964844 0.183594 5.945312 0.183594 Z M 1.761719 -4.894531 C 1.761719 -7.410156 3.46875 -9.117188 5.945312 -9.117188 C 8.433594 -9.117188 10.140625 -7.410156 10.140625 -4.894531 C 10.140625 -2.390625 8.433594 -0.671875 5.945312 -0.671875 C 3.46875 -0.671875 1.761719 -2.390625 1.761719 -4.894531 Z M 1.761719 -4.894531 "/></g></g></g><g fill="#fffbfa" fill-opacity="1"><g transform="translate(159.552885, 364.869065)"><g><path d="M 1.582031 0 L 7.398438 0 L 7.398438 -0.8125 L 2.433594 -0.8125 L 2.433594 -9.789062 L 1.582031 -9.789062 Z M 1.582031 0 "/></g></g></g><g fill="#fffbfa" fill-opacity="1"><g transform="translate(173.020284, 364.869065)"><g><path d="M 1.582031 0 L 7.398438 0 L 7.398438 -0.8125 L 2.433594 -0.8125 L 2.433594 -9.789062 L 1.582031 -9.789062 Z M 1.582031 0 "/></g></g></g><g fill="#fffbfa" fill-opacity="1"><g transform="translate(186.48768, 364.869065)"><g><path d="M 1.582031 0 L 7.496094 0 L 7.496094 -0.796875 L 2.433594 -0.796875 L 2.433594 -4.601562 L 6.976562 -4.601562 L 6.976562 -5.382812 L 2.433594 -5.382812 L 2.433594 -8.992188 L 7.34375 -8.992188 L 7.34375 -9.789062 L 1.582031 -9.789062 Z M 1.582031 0 "/></g></g></g><g fill="#fffbfa" fill-opacity="1"><g transform="translate(200.598378, 364.869065)"><g><path d="M 5.859375 0.183594 C 8.167969 0.183594 10.054688 -1.175781 10.65625 -3.285156 L 9.761719 -3.285156 C 9.214844 -1.664062 7.707031 -0.671875 5.875 -0.671875 C 3.480469 -0.671875 1.761719 -2.390625 1.761719 -4.894531 C 1.761719 -7.398438 3.480469 -9.117188 5.875 -9.117188 C 7.664062 -9.117188 9.117188 -8.167969 9.675781 -6.613281 L 10.574219 -6.613281 C 9.929688 -8.671875 8.097656 -9.972656 5.859375 -9.972656 C 2.980469 -9.972656 0.894531 -7.875 0.894531 -4.894531 C 0.894531 -1.914062 2.980469 0.183594 5.859375 0.183594 Z M 5.859375 0.183594 "/></g></g></g><g fill="#fffbfa" fill-opacity="1"><g transform="translate(217.687875, 364.869065)"><g><path d="M 3.902344 0 L 4.742188 0 L 4.742188 -8.976562 L 8.125 -8.976562 L 8.125 -9.789062 L 0.53125 -9.789062 L 0.53125 -8.976562 L 3.902344 -8.976562 Z M 3.902344 0 "/></g></g></g><g fill="#fffbfa" fill-opacity="1"><g transform="translate(231.938438, 364.869065)"><g><path d="M 5.945312 0.183594 C 8.9375 0.183594 10.992188 -1.902344 10.992188 -4.894531 C 10.992188 -7.886719 8.9375 -9.972656 5.945312 -9.972656 C 2.964844 -9.972656 0.894531 -7.886719 0.894531 -4.894531 C 0.894531 -1.902344 2.964844 0.183594 5.945312 0.183594 Z M 1.761719 -4.894531 C 1.761719 -7.410156 3.46875 -9.117188 5.945312 -9.117188 C 8.433594 -9.117188 10.140625 -7.410156 10.140625 -4.894531 C 10.140625 -2.390625 8.433594 -0.671875 5.945312 -0.671875 C 3.46875 -0.671875 1.761719 -2.390625 1.761719 -4.894531 Z M 1.761719 -4.894531 "/></g></g></g><g fill="#fffbfa" fill-opacity="1"><g transform="translate(249.419507, 364.869065)"><g><path d="M 1.582031 0 L 2.433594 0 L 2.433594 -3.679688 L 4.964844 -3.679688 L 7.59375 0 L 8.613281 0 L 5.957031 -3.746094 C 7.496094 -4.011719 8.460938 -5.117188 8.460938 -6.742188 C 8.460938 -8.601562 7.175781 -9.789062 5.203125 -9.789062 L 1.582031 -9.789062 Z M 2.433594 -4.488281 L 2.433594 -8.976562 L 5.117188 -8.976562 C 6.671875 -8.976562 7.59375 -8.125 7.59375 -6.742188 C 7.59375 -5.34375 6.671875 -4.488281 5.117188 -4.488281 Z M 2.433594 -4.488281 "/></g></g></g></svg>